<?xml version="1.0" encoding="utf-8" standalone="no"?>
<!DOCTYPE svg PUBLIC "-//W3C//DTD SVG 1.1//EN"
  "http://www.w3.org/Graphics/SVG/1.1/DTD/svg11.dtd">
<svg xmlns:xlink="http://www.w3.org/1999/xlink" width="649.71pt" height="216pt" viewBox="0 0 649.71 216" xmlns="http://www.w3.org/2000/svg" version="1.1">
 <metadata>
  <rdf:RDF xmlns:dc="http://purl.org/dc/elements/1.1/" xmlns:cc="http://creativecommons.org/ns#" xmlns:rdf="http://www.w3.org/1999/02/22-rdf-syntax-ns#">
   <cc:Work>
    <dc:type rdf:resource="http://purl.org/dc/dcmitype/StillImage"/>
    <dc:date>1980-01-01T00:00:00+00:00</dc:date>
    <dc:format>image/svg+xml</dc:format>
    <dc:creator>
     <cc:Agent>
      <dc:title>Matplotlib v3.6.2, https://matplotlib.org/</dc:title>
     </cc:Agent>
    </dc:creator>
   </cc:Work>
  </rdf:RDF>
 </metadata>
 <defs>
  <style type="text/css">*{stroke-linejoin: round; stroke-linecap: butt}</style>
 </defs>
 <g id="figure_1">
  <g id="patch_1">
   <path d="M 0 216 
L 649.71 216 
L 649.71 0 
L 0 0 
z
" style="fill: #ffffff"/>
  </g>
  <g id="axes_1">
   <g id="patch_2">
    <path d="M 80.98 174.04 
L 352.795 174.04 
L 352.795 24.72 
L 80.98 24.72 
z
" style="fill: #ffffff"/>
   </g>
   <g id="matplotlib.axis_1">
    <g id="xtick_1">
     <g id="line2d_1">
      <defs>
       <path id="m31ff7abc0d" d="M 0 0 
L 0 3.5 
" style="stroke: #000000; stroke-width: 0.8"/>
      </defs>
      <g>
       <use xlink:href="#m31ff7abc0d" x="93.304671" y="174.04" style="stroke: #000000; stroke-width: 0.8"/>
      </g>
     </g>
     <g id="text_1">
      <!-- 0 -->
      <g transform="translate(90.123421 188.638438) scale(0.1 -0.1)">
       <defs>
        <path id="DejaVuSans-30" d="M 2034 4250 
Q 1547 4250 1301 3770 
Q 1056 3291 1056 2328 
Q 1056 1369 1301 889 
Q 1547 409 2034 409 
Q 2525 409 2770 889 
Q 3016 1369 3016 2328 
Q 3016 3291 2770 3770 
Q 2525 4250 2034 4250 
z
M 2034 4750 
Q 2819 4750 3233 4129 
Q 3647 3509 3647 2328 
Q 3647 1150 3233 529 
Q 2819 -91 2034 -91 
Q 1250 -91 836 529 
Q 422 1150 422 2328 
Q 422 3509 836 4129 
Q 1250 4750 2034 4750 
z
" transform="scale(0.015625)"/>
       </defs>
       <use xlink:href="#DejaVuSans-30"/>
      </g>
     </g>
    </g>
    <g id="xtick_2">
     <g id="line2d_2">
      <g>
       <use xlink:href="#m31ff7abc0d" x="123.860446" y="174.04" style="stroke: #000000; stroke-width: 0.8"/>
      </g>
     </g>
     <g id="text_2">
      <!-- 250 -->
      <g transform="translate(114.316696 188.638438) scale(0.1 -0.1)">
       <defs>
        <path id="DejaVuSans-32" d="M 1228 531 
L 3431 531 
L 3431 0 
L 469 0 
L 469 531 
Q 828 903 1448 1529 
Q 2069 2156 2228 2338 
Q 2531 2678 2651 2914 
Q 2772 3150 2772 3378 
Q 2772 3750 2511 3984 
Q 2250 4219 1831 4219 
Q 1534 4219 1204 4116 
Q 875 4013 500 3803 
L 500 4441 
Q 881 4594 1212 4672 
Q 1544 4750 1819 4750 
Q 2544 4750 2975 4387 
Q 3406 4025 3406 3419 
Q 3406 3131 3298 2873 
Q 3191 2616 2906 2266 
Q 2828 2175 2409 1742 
Q 1991 1309 1228 531 
z
" transform="scale(0.015625)"/>
        <path id="DejaVuSans-35" d="M 691 4666 
L 3169 4666 
L 3169 4134 
L 1269 4134 
L 1269 2991 
Q 1406 3038 1543 3061 
Q 1681 3084 1819 3084 
Q 2600 3084 3056 2656 
Q 3513 2228 3513 1497 
Q 3513 744 3044 326 
Q 2575 -91 1722 -91 
Q 1428 -91 1123 -41 
Q 819 9 494 109 
L 494 744 
Q 775 591 1075 516 
Q 1375 441 1709 441 
Q 2250 441 2565 725 
Q 2881 1009 2881 1497 
Q 2881 1984 2565 2268 
Q 2250 2553 1709 2553 
Q 1456 2553 1204 2497 
Q 953 2441 691 2322 
L 691 4666 
z
" transform="scale(0.015625)"/>
       </defs>
       <use xlink:href="#DejaVuSans-32"/>
       <use xlink:href="#DejaVuSans-35" x="63.623047"/>
       <use xlink:href="#DejaVuSans-30" x="127.246094"/>
      </g>
     </g>
    </g>
    <g id="xtick_3">
     <g id="line2d_3">
      <g>
       <use xlink:href="#m31ff7abc0d" x="154.41622" y="174.04" style="stroke: #000000; stroke-width: 0.8"/>
      </g>
     </g>
     <g id="text_3">
      <!-- 500 -->
      <g transform="translate(144.87247 188.638438) scale(0.1 -0.1)">
       <use xlink:href="#DejaVuSans-35"/>
       <use xlink:href="#DejaVuSans-30" x="63.623047"/>
       <use xlink:href="#DejaVuSans-30" x="127.246094"/>
      </g>
     </g>
    </g>
    <g id="xtick_4">
     <g id="line2d_4">
      <g>
       <use xlink:href="#m31ff7abc0d" x="184.971994" y="174.04" style="stroke: #000000; stroke-width: 0.8"/>
      </g>
     </g>
     <g id="text_4">
      <!-- 750 -->
      <g transform="translate(175.428244 188.638438) scale(0.1 -0.1)">
       <defs>
        <path id="DejaVuSans-37" d="M 525 4666 
L 3525 4666 
L 3525 4397 
L 1831 0 
L 1172 0 
L 2766 4134 
L 525 4134 
L 525 4666 
z
" transform="scale(0.015625)"/>
       </defs>
       <use xlink:href="#DejaVuSans-37"/>
       <use xlink:href="#DejaVuSans-35" x="63.623047"/>
       <use xlink:href="#DejaVuSans-30" x="127.246094"/>
      </g>
     </g>
    </g>
    <g id="xtick_5">
     <g id="line2d_5">
      <g>
       <use xlink:href="#m31ff7abc0d" x="215.527768" y="174.04" style="stroke: #000000; stroke-width: 0.8"/>
      </g>
     </g>
     <g id="text_5">
      <!-- 1000 -->
      <g transform="translate(202.802768 188.638438) scale(0.1 -0.1)">
       <defs>
        <path id="DejaVuSans-31" d="M 794 531 
L 1825 531 
L 1825 4091 
L 703 3866 
L 703 4441 
L 1819 4666 
L 2450 4666 
L 2450 531 
L 3481 531 
L 3481 0 
L 794 0 
L 794 531 
z
" transform="scale(0.015625)"/>
       </defs>
       <use xlink:href="#DejaVuSans-31"/>
       <use xlink:href="#DejaVuSans-30" x="63.623047"/>
       <use xlink:href="#DejaVuSans-30" x="127.246094"/>
       <use xlink:href="#DejaVuSans-30" x="190.869141"/>
      </g>
     </g>
    </g>
    <g id="xtick_6">
     <g id="line2d_6">
      <g>
       <use xlink:href="#m31ff7abc0d" x="246.083542" y="174.04" style="stroke: #000000; stroke-width: 0.8"/>
      </g>
     </g>
     <g id="text_6">
      <!-- 1250 -->
      <g transform="translate(233.358542 188.638438) scale(0.1 -0.1)">
       <use xlink:href="#DejaVuSans-31"/>
       <use xlink:href="#DejaVuSans-32" x="63.623047"/>
       <use xlink:href="#DejaVuSans-35" x="127.246094"/>
       <use xlink:href="#DejaVuSans-30" x="190.869141"/>
      </g>
     </g>
    </g>
    <g id="xtick_7">
     <g id="line2d_7">
      <g>
       <use xlink:href="#m31ff7abc0d" x="276.639316" y="174.04" style="stroke: #000000; stroke-width: 0.8"/>
      </g>
     </g>
     <g id="text_7">
      <!-- 1500 -->
      <g transform="translate(263.914316 188.638438) scale(0.1 -0.1)">
       <use xlink:href="#DejaVuSans-31"/>
       <use xlink:href="#DejaVuSans-35" x="63.623047"/>
       <use xlink:href="#DejaVuSans-30" x="127.246094"/>
       <use xlink:href="#DejaVuSans-30" x="190.869141"/>
      </g>
     </g>
    </g>
    <g id="xtick_8">
     <g id="line2d_8">
      <g>
       <use xlink:href="#m31ff7abc0d" x="307.19509" y="174.04" style="stroke: #000000; stroke-width: 0.8"/>
      </g>
     </g>
     <g id="text_8">
      <!-- 1750 -->
      <g transform="translate(294.47009 188.638438) scale(0.1 -0.1)">
       <use xlink:href="#DejaVuSans-31"/>
       <use xlink:href="#DejaVuSans-37" x="63.623047"/>
       <use xlink:href="#DejaVuSans-35" x="127.246094"/>
       <use xlink:href="#DejaVuSans-30" x="190.869141"/>
      </g>
     </g>
    </g>
    <g id="xtick_9">
     <g id="line2d_9">
      <g>
       <use xlink:href="#m31ff7abc0d" x="337.750865" y="174.04" style="stroke: #000000; stroke-width: 0.8"/>
      </g>
     </g>
     <g id="text_9">
      <!-- 2000 -->
      <g transform="translate(325.025865 188.638438) scale(0.1 -0.1)">
       <use xlink:href="#DejaVuSans-32"/>
       <use xlink:href="#DejaVuSans-30" x="63.623047"/>
       <use xlink:href="#DejaVuSans-30" x="127.246094"/>
       <use xlink:href="#DejaVuSans-30" x="190.869141"/>
      </g>
     </g>
    </g>
    <g id="text_10">
     <!-- year -->
     <g transform="translate(205.732031 202.316563) scale(0.1 -0.1)">
      <defs>
       <path id="DejaVuSans-79" d="M 2059 -325 
Q 1816 -950 1584 -1140 
Q 1353 -1331 966 -1331 
L 506 -1331 
L 506 -850 
L 844 -850 
Q 1081 -850 1212 -737 
Q 1344 -625 1503 -206 
L 1606 56 
L 191 3500 
L 800 3500 
L 1894 763 
L 2988 3500 
L 3597 3500 
L 2059 -325 
z
" transform="scale(0.015625)"/>
       <path id="DejaVuSans-65" d="M 3597 1894 
L 3597 1613 
L 953 1613 
Q 991 1019 1311 708 
Q 1631 397 2203 397 
Q 2534 397 2845 478 
Q 3156 559 3463 722 
L 3463 178 
Q 3153 47 2828 -22 
Q 2503 -91 2169 -91 
Q 1331 -91 842 396 
Q 353 884 353 1716 
Q 353 2575 817 3079 
Q 1281 3584 2069 3584 
Q 2775 3584 3186 3129 
Q 3597 2675 3597 1894 
z
M 3022 2063 
Q 3016 2534 2758 2815 
Q 2500 3097 2075 3097 
Q 1594 3097 1305 2825 
Q 1016 2553 972 2059 
L 3022 2063 
z
" transform="scale(0.015625)"/>
       <path id="DejaVuSans-61" d="M 2194 1759 
Q 1497 1759 1228 1600 
Q 959 1441 959 1056 
Q 959 750 1161 570 
Q 1363 391 1709 391 
Q 2188 391 2477 730 
Q 2766 1069 2766 1631 
L 2766 1759 
L 2194 1759 
z
M 3341 1997 
L 3341 0 
L 2766 0 
L 2766 531 
Q 2569 213 2275 61 
Q 1981 -91 1556 -91 
Q 1019 -91 701 211 
Q 384 513 384 1019 
Q 384 1609 779 1909 
Q 1175 2209 1959 2209 
L 2766 2209 
L 2766 2266 
Q 2766 2663 2505 2880 
Q 2244 3097 1772 3097 
Q 1472 3097 1187 3025 
Q 903 2953 641 2809 
L 641 3341 
Q 956 3463 1253 3523 
Q 1550 3584 1831 3584 
Q 2591 3584 2966 3190 
Q 3341 2797 3341 1997 
z
" transform="scale(0.015625)"/>
       <path id="DejaVuSans-72" d="M 2631 2963 
Q 2534 3019 2420 3045 
Q 2306 3072 2169 3072 
Q 1681 3072 1420 2755 
Q 1159 2438 1159 1844 
L 1159 0 
L 581 0 
L 581 3500 
L 1159 3500 
L 1159 2956 
Q 1341 3275 1631 3429 
Q 1922 3584 2338 3584 
Q 2397 3584 2469 3576 
Q 2541 3569 2628 3553 
L 2631 2963 
z
" transform="scale(0.015625)"/>
      </defs>
      <use xlink:href="#DejaVuSans-79"/>
      <use xlink:href="#DejaVuSans-65" x="59.179688"/>
      <use xlink:href="#DejaVuSans-61" x="120.703125"/>
      <use xlink:href="#DejaVuSans-72" x="181.982422"/>
     </g>
    </g>
   </g>
   <g id="matplotlib.axis_2">
    <g id="ytick_1">
     <g id="line2d_10">
      <defs>
       <path id="mfce1d5d29e" d="M 0 0 
L -3.5 0 
" style="stroke: #000000; stroke-width: 0.8"/>
      </defs>
      <g>
       <use xlink:href="#mfce1d5d29e" x="80.98" y="49.606667" style="stroke: #000000; stroke-width: 0.8"/>
      </g>
     </g>
     <g id="text_11">
      <!-- Final -->
      <g transform="translate(50.931562 53.405885) scale(0.1 -0.1)">
       <defs>
        <path id="DejaVuSans-46" d="M 628 4666 
L 3309 4666 
L 3309 4134 
L 1259 4134 
L 1259 2759 
L 3109 2759 
L 3109 2228 
L 1259 2228 
L 1259 0 
L 628 0 
L 628 4666 
z
" transform="scale(0.015625)"/>
        <path id="DejaVuSans-69" d="M 603 3500 
L 1178 3500 
L 1178 0 
L 603 0 
L 603 3500 
z
M 603 4863 
L 1178 4863 
L 1178 4134 
L 603 4134 
L 603 4863 
z
" transform="scale(0.015625)"/>
        <path id="DejaVuSans-6e" d="M 3513 2113 
L 3513 0 
L 2938 0 
L 2938 2094 
Q 2938 2591 2744 2837 
Q 2550 3084 2163 3084 
Q 1697 3084 1428 2787 
Q 1159 2491 1159 1978 
L 1159 0 
L 581 0 
L 581 3500 
L 1159 3500 
L 1159 2956 
Q 1366 3272 1645 3428 
Q 1925 3584 2291 3584 
Q 2894 3584 3203 3211 
Q 3513 2838 3513 2113 
z
" transform="scale(0.015625)"/>
        <path id="DejaVuSans-6c" d="M 603 4863 
L 1178 4863 
L 1178 0 
L 603 0 
L 603 4863 
z
" transform="scale(0.015625)"/>
       </defs>
       <use xlink:href="#DejaVuSans-46"/>
       <use xlink:href="#DejaVuSans-69" x="50.269531"/>
       <use xlink:href="#DejaVuSans-6e" x="78.052734"/>
       <use xlink:href="#DejaVuSans-61" x="141.431641"/>
       <use xlink:href="#DejaVuSans-6c" x="202.710938"/>
      </g>
     </g>
    </g>
    <g id="ytick_2">
     <g id="line2d_11">
      <g>
       <use xlink:href="#mfce1d5d29e" x="80.98" y="99.38" style="stroke: #000000; stroke-width: 0.8"/>
      </g>
     </g>
     <g id="text_12">
      <!-- SemiFinal -->
      <g transform="translate(25.91125 103.179219) scale(0.1 -0.1)">
       <defs>
        <path id="DejaVuSans-53" d="M 3425 4513 
L 3425 3897 
Q 3066 4069 2747 4153 
Q 2428 4238 2131 4238 
Q 1616 4238 1336 4038 
Q 1056 3838 1056 3469 
Q 1056 3159 1242 3001 
Q 1428 2844 1947 2747 
L 2328 2669 
Q 3034 2534 3370 2195 
Q 3706 1856 3706 1288 
Q 3706 609 3251 259 
Q 2797 -91 1919 -91 
Q 1588 -91 1214 -16 
Q 841 59 441 206 
L 441 856 
Q 825 641 1194 531 
Q 1563 422 1919 422 
Q 2459 422 2753 634 
Q 3047 847 3047 1241 
Q 3047 1584 2836 1778 
Q 2625 1972 2144 2069 
L 1759 2144 
Q 1053 2284 737 2584 
Q 422 2884 422 3419 
Q 422 4038 858 4394 
Q 1294 4750 2059 4750 
Q 2388 4750 2728 4690 
Q 3069 4631 3425 4513 
z
" transform="scale(0.015625)"/>
        <path id="DejaVuSans-6d" d="M 3328 2828 
Q 3544 3216 3844 3400 
Q 4144 3584 4550 3584 
Q 5097 3584 5394 3201 
Q 5691 2819 5691 2113 
L 5691 0 
L 5113 0 
L 5113 2094 
Q 5113 2597 4934 2840 
Q 4756 3084 4391 3084 
Q 3944 3084 3684 2787 
Q 3425 2491 3425 1978 
L 3425 0 
L 2847 0 
L 2847 2094 
Q 2847 2600 2669 2842 
Q 2491 3084 2119 3084 
Q 1678 3084 1418 2786 
Q 1159 2488 1159 1978 
L 1159 0 
L 581 0 
L 581 3500 
L 1159 3500 
L 1159 2956 
Q 1356 3278 1631 3431 
Q 1906 3584 2284 3584 
Q 2666 3584 2933 3390 
Q 3200 3197 3328 2828 
z
" transform="scale(0.015625)"/>
       </defs>
       <use xlink:href="#DejaVuSans-53"/>
       <use xlink:href="#DejaVuSans-65" x="63.476562"/>
       <use xlink:href="#DejaVuSans-6d" x="125"/>
       <use xlink:href="#DejaVuSans-69" x="222.412109"/>
       <use xlink:href="#DejaVuSans-46" x="250.195312"/>
       <use xlink:href="#DejaVuSans-69" x="300.464844"/>
       <use xlink:href="#DejaVuSans-6e" x="328.248047"/>
       <use xlink:href="#DejaVuSans-61" x="391.626953"/>
       <use xlink:href="#DejaVuSans-6c" x="452.90625"/>
      </g>
     </g>
    </g>
    <g id="ytick_3">
     <g id="line2d_12">
      <g>
       <use xlink:href="#mfce1d5d29e" x="80.98" y="149.153333" style="stroke: #000000; stroke-width: 0.8"/>
      </g>
     </g>
     <g id="text_13">
      <!-- Qualification -->
      <g transform="translate(11.006563 152.952552) scale(0.1 -0.1)">
       <defs>
        <path id="DejaVuSans-51" d="M 2522 4238 
Q 1834 4238 1429 3725 
Q 1025 3213 1025 2328 
Q 1025 1447 1429 934 
Q 1834 422 2522 422 
Q 3209 422 3611 934 
Q 4013 1447 4013 2328 
Q 4013 3213 3611 3725 
Q 3209 4238 2522 4238 
z
M 3406 84 
L 4238 -825 
L 3475 -825 
L 2784 -78 
Q 2681 -84 2626 -87 
Q 2572 -91 2522 -91 
Q 1538 -91 948 567 
Q 359 1225 359 2328 
Q 359 3434 948 4092 
Q 1538 4750 2522 4750 
Q 3503 4750 4090 4092 
Q 4678 3434 4678 2328 
Q 4678 1516 4351 937 
Q 4025 359 3406 84 
z
" transform="scale(0.015625)"/>
        <path id="DejaVuSans-75" d="M 544 1381 
L 544 3500 
L 1119 3500 
L 1119 1403 
Q 1119 906 1312 657 
Q 1506 409 1894 409 
Q 2359 409 2629 706 
Q 2900 1003 2900 1516 
L 2900 3500 
L 3475 3500 
L 3475 0 
L 2900 0 
L 2900 538 
Q 2691 219 2414 64 
Q 2138 -91 1772 -91 
Q 1169 -91 856 284 
Q 544 659 544 1381 
z
M 1991 3584 
L 1991 3584 
z
" transform="scale(0.015625)"/>
        <path id="DejaVuSans-66" d="M 2375 4863 
L 2375 4384 
L 1825 4384 
Q 1516 4384 1395 4259 
Q 1275 4134 1275 3809 
L 1275 3500 
L 2222 3500 
L 2222 3053 
L 1275 3053 
L 1275 0 
L 697 0 
L 697 3053 
L 147 3053 
L 147 3500 
L 697 3500 
L 697 3744 
Q 697 4328 969 4595 
Q 1241 4863 1831 4863 
L 2375 4863 
z
" transform="scale(0.015625)"/>
        <path id="DejaVuSans-63" d="M 3122 3366 
L 3122 2828 
Q 2878 2963 2633 3030 
Q 2388 3097 2138 3097 
Q 1578 3097 1268 2742 
Q 959 2388 959 1747 
Q 959 1106 1268 751 
Q 1578 397 2138 397 
Q 2388 397 2633 464 
Q 2878 531 3122 666 
L 3122 134 
Q 2881 22 2623 -34 
Q 2366 -91 2075 -91 
Q 1284 -91 818 406 
Q 353 903 353 1747 
Q 353 2603 823 3093 
Q 1294 3584 2113 3584 
Q 2378 3584 2631 3529 
Q 2884 3475 3122 3366 
z
" transform="scale(0.015625)"/>
        <path id="DejaVuSans-74" d="M 1172 4494 
L 1172 3500 
L 2356 3500 
L 2356 3053 
L 1172 3053 
L 1172 1153 
Q 1172 725 1289 603 
Q 1406 481 1766 481 
L 2356 481 
L 2356 0 
L 1766 0 
Q 1100 0 847 248 
Q 594 497 594 1153 
L 594 3053 
L 172 3053 
L 172 3500 
L 594 3500 
L 594 4494 
L 1172 4494 
z
" transform="scale(0.015625)"/>
        <path id="DejaVuSans-6f" d="M 1959 3097 
Q 1497 3097 1228 2736 
Q 959 2375 959 1747 
Q 959 1119 1226 758 
Q 1494 397 1959 397 
Q 2419 397 2687 759 
Q 2956 1122 2956 1747 
Q 2956 2369 2687 2733 
Q 2419 3097 1959 3097 
z
M 1959 3584 
Q 2709 3584 3137 3096 
Q 3566 2609 3566 1747 
Q 3566 888 3137 398 
Q 2709 -91 1959 -91 
Q 1206 -91 779 398 
Q 353 888 353 1747 
Q 353 2609 779 3096 
Q 1206 3584 1959 3584 
z
" transform="scale(0.015625)"/>
       </defs>
       <use xlink:href="#DejaVuSans-51"/>
       <use xlink:href="#DejaVuSans-75" x="78.710938"/>
       <use xlink:href="#DejaVuSans-61" x="142.089844"/>
       <use xlink:href="#DejaVuSans-6c" x="203.369141"/>
       <use xlink:href="#DejaVuSans-69" x="231.152344"/>
       <use xlink:href="#DejaVuSans-66" x="258.935547"/>
       <use xlink:href="#DejaVuSans-69" x="294.140625"/>
       <use xlink:href="#DejaVuSans-63" x="321.923828"/>
       <use xlink:href="#DejaVuSans-61" x="376.904297"/>
       <use xlink:href="#DejaVuSans-74" x="438.183594"/>
       <use xlink:href="#DejaVuSans-69" x="477.392578"/>
       <use xlink:href="#DejaVuSans-6f" x="505.175781"/>
       <use xlink:href="#DejaVuSans-6e" x="566.357422"/>
      </g>
     </g>
    </g>
   </g>
   <g id="line2d_13">
    <path d="M 338.900889 217 
L 338.973096 99.38 
L 339.095319 198.926667 
L 339.339765 198.926667 
L 339.461988 99.38 
L 339.706434 149.153333 
L 339.828657 99.38 
L 339.95088 198.926667 
L 340.073103 149.153333 
" clip-path="url(#pfd79f799d7)" style="fill: none; stroke: #1f77b4; stroke-width: 1.5; stroke-linecap: square"/>
   </g>
   <g id="line2d_14">
    <path clip-path="url(#pfd79f799d7)" style="fill: none; stroke: #ff7f0e; stroke-width: 1.5; stroke-linecap: square"/>
   </g>
   <g id="line2d_15">
    <path clip-path="url(#pfd79f799d7)" style="fill: none; stroke: #2ca02c; stroke-width: 1.5; stroke-linecap: square"/>
   </g>
   <g id="line2d_16">
    <path clip-path="url(#pfd79f799d7)" style="fill: none; stroke: #d62728; stroke-width: 1.5; stroke-linecap: square"/>
   </g>
   <g id="line2d_17">
    <path d="M 338.802735 217 
L 338.850872 99.38 
L 338.886976 217 
M 339.453112 217 
L 339.461988 198.926667 
L 339.470864 217 
M 339.813864 217 
L 339.828657 198.926667 
L 339.873038 217 
" clip-path="url(#pfd79f799d7)" style="fill: none; stroke: #9467bd; stroke-width: 1.5; stroke-linecap: square"/>
   </g>
   <g id="line2d_18"/>
   <g id="line2d_19"/>
   <g id="line2d_20"/>
   <g id="line2d_21"/>
   <g id="line2d_22"/>
   <g id="patch_3">
    <path d="M 80.98 174.04 
L 80.98 24.72 
" style="fill: none; stroke: #000000; stroke-width: 0.8; stroke-linejoin: miter; stroke-linecap: square"/>
   </g>
   <g id="patch_4">
    <path d="M 80.98 174.04 
L 352.795 174.04 
" style="fill: none; stroke: #000000; stroke-width: 0.8; stroke-linejoin: miter; stroke-linecap: square"/>
   </g>
   <g id="text_14">
    <!-- round = Final -->
    <g transform="translate(183.48125 18.72) scale(0.1 -0.1)">
     <defs>
      <path id="DejaVuSans-64" d="M 2906 2969 
L 2906 4863 
L 3481 4863 
L 3481 0 
L 2906 0 
L 2906 525 
Q 2725 213 2448 61 
Q 2172 -91 1784 -91 
Q 1150 -91 751 415 
Q 353 922 353 1747 
Q 353 2572 751 3078 
Q 1150 3584 1784 3584 
Q 2172 3584 2448 3432 
Q 2725 3281 2906 2969 
z
M 947 1747 
Q 947 1113 1208 752 
Q 1469 391 1925 391 
Q 2381 391 2643 752 
Q 2906 1113 2906 1747 
Q 2906 2381 2643 2742 
Q 2381 3103 1925 3103 
Q 1469 3103 1208 2742 
Q 947 2381 947 1747 
z
" transform="scale(0.015625)"/>
      <path id="DejaVuSans-20" transform="scale(0.015625)"/>
      <path id="DejaVuSans-3d" d="M 678 2906 
L 4684 2906 
L 4684 2381 
L 678 2381 
L 678 2906 
z
M 678 1631 
L 4684 1631 
L 4684 1100 
L 678 1100 
L 678 1631 
z
" transform="scale(0.015625)"/>
     </defs>
     <use xlink:href="#DejaVuSans-72"/>
     <use xlink:href="#DejaVuSans-6f" x="38.863281"/>
     <use xlink:href="#DejaVuSans-75" x="100.044922"/>
     <use xlink:href="#DejaVuSans-6e" x="163.423828"/>
     <use xlink:href="#DejaVuSans-64" x="226.802734"/>
     <use xlink:href="#DejaVuSans-20" x="290.279297"/>
     <use xlink:href="#DejaVuSans-3d" x="322.066406"/>
     <use xlink:href="#DejaVuSans-20" x="405.855469"/>
     <use xlink:href="#DejaVuSans-46" x="437.642578"/>
     <use xlink:href="#DejaVuSans-69" x="487.912109"/>
     <use xlink:href="#DejaVuSans-6e" x="515.695312"/>
     <use xlink:href="#DejaVuSans-61" x="579.074219"/>
     <use xlink:href="#DejaVuSans-6c" x="640.353516"/>
    </g>
   </g>
  </g>
  <g id="axes_2">
   <g id="patch_5">
    <path d="M 367.095 174.04 
L 638.91 174.04 
L 638.91 24.72 
L 367.095 24.72 
z
" style="fill: #ffffff"/>
   </g>
   <g id="matplotlib.axis_3">
    <g id="xtick_10">
     <g id="line2d_23">
      <g>
       <use xlink:href="#m31ff7abc0d" x="379.419671" y="174.04" style="stroke: #000000; stroke-width: 0.8"/>
      </g>
     </g>
     <g id="text_15">
      <!-- 0 -->
      <g transform="translate(376.238421 188.638438) scale(0.1 -0.1)">
       <use xlink:href="#DejaVuSans-30"/>
      </g>
     </g>
    </g>
    <g id="xtick_11">
     <g id="line2d_24">
      <g>
       <use xlink:href="#m31ff7abc0d" x="409.975446" y="174.04" style="stroke: #000000; stroke-width: 0.8"/>
      </g>
     </g>
     <g id="text_16">
      <!-- 250 -->
      <g transform="translate(400.431696 188.638438) scale(0.1 -0.1)">
       <use xlink:href="#DejaVuSans-32"/>
       <use xlink:href="#DejaVuSans-35" x="63.623047"/>
       <use xlink:href="#DejaVuSans-30" x="127.246094"/>
      </g>
     </g>
    </g>
    <g id="xtick_12">
     <g id="line2d_25">
      <g>
       <use xlink:href="#m31ff7abc0d" x="440.53122" y="174.04" style="stroke: #000000; stroke-width: 0.8"/>
      </g>
     </g>
     <g id="text_17">
      <!-- 500 -->
      <g transform="translate(430.98747 188.638438) scale(0.1 -0.1)">
       <use xlink:href="#DejaVuSans-35"/>
       <use xlink:href="#DejaVuSans-30" x="63.623047"/>
       <use xlink:href="#DejaVuSans-30" x="127.246094"/>
      </g>
     </g>
    </g>
    <g id="xtick_13">
     <g id="line2d_26">
      <g>
       <use xlink:href="#m31ff7abc0d" x="471.086994" y="174.04" style="stroke: #000000; stroke-width: 0.8"/>
      </g>
     </g>
     <g id="text_18">
      <!-- 750 -->
      <g transform="translate(461.543244 188.638438) scale(0.1 -0.1)">
       <use xlink:href="#DejaVuSans-37"/>
       <use xlink:href="#DejaVuSans-35" x="63.623047"/>
       <use xlink:href="#DejaVuSans-30" x="127.246094"/>
      </g>
     </g>
    </g>
    <g id="xtick_14">
     <g id="line2d_27">
      <g>
       <use xlink:href="#m31ff7abc0d" x="501.642768" y="174.04" style="stroke: #000000; stroke-width: 0.8"/>
      </g>
     </g>
     <g id="text_19">
      <!-- 1000 -->
      <g transform="translate(488.917768 188.638438) scale(0.1 -0.1)">
       <use xlink:href="#DejaVuSans-31"/>
       <use xlink:href="#DejaVuSans-30" x="63.623047"/>
       <use xlink:href="#DejaVuSans-30" x="127.246094"/>
       <use xlink:href="#DejaVuSans-30" x="190.869141"/>
      </g>
     </g>
    </g>
    <g id="xtick_15">
     <g id="line2d_28">
      <g>
       <use xlink:href="#m31ff7abc0d" x="532.198542" y="174.04" style="stroke: #000000; stroke-width: 0.8"/>
      </g>
     </g>
     <g id="text_20">
      <!-- 1250 -->
      <g transform="translate(519.473542 188.638438) scale(0.1 -0.1)">
       <use xlink:href="#DejaVuSans-31"/>
       <use xlink:href="#DejaVuSans-32" x="63.623047"/>
       <use xlink:href="#DejaVuSans-35" x="127.246094"/>
       <use xlink:href="#DejaVuSans-30" x="190.869141"/>
      </g>
     </g>
    </g>
    <g id="xtick_16">
     <g id="line2d_29">
      <g>
       <use xlink:href="#m31ff7abc0d" x="562.754316" y="174.04" style="stroke: #000000; stroke-width: 0.8"/>
      </g>
     </g>
     <g id="text_21">
      <!-- 1500 -->
      <g transform="translate(550.029316 188.638438) scale(0.1 -0.1)">
       <use xlink:href="#DejaVuSans-31"/>
       <use xlink:href="#DejaVuSans-35" x="63.623047"/>
       <use xlink:href="#DejaVuSans-30" x="127.246094"/>
       <use xlink:href="#DejaVuSans-30" x="190.869141"/>
      </g>
     </g>
    </g>
    <g id="xtick_17">
     <g id="line2d_30">
      <g>
       <use xlink:href="#m31ff7abc0d" x="593.31009" y="174.04" style="stroke: #000000; stroke-width: 0.8"/>
      </g>
     </g>
     <g id="text_22">
      <!-- 1750 -->
      <g transform="translate(580.58509 188.638438) scale(0.1 -0.1)">
       <use xlink:href="#DejaVuSans-31"/>
       <use xlink:href="#DejaVuSans-37" x="63.623047"/>
       <use xlink:href="#DejaVuSans-35" x="127.246094"/>
       <use xlink:href="#DejaVuSans-30" x="190.869141"/>
      </g>
     </g>
    </g>
    <g id="xtick_18">
     <g id="line2d_31">
      <g>
       <use xlink:href="#m31ff7abc0d" x="623.865865" y="174.04" style="stroke: #000000; stroke-width: 0.8"/>
      </g>
     </g>
     <g id="text_23">
      <!-- 2000 -->
      <g transform="translate(611.140865 188.638438) scale(0.1 -0.1)">
       <use xlink:href="#DejaVuSans-32"/>
       <use xlink:href="#DejaVuSans-30" x="63.623047"/>
       <use xlink:href="#DejaVuSans-30" x="127.246094"/>
       <use xlink:href="#DejaVuSans-30" x="190.869141"/>
      </g>
     </g>
    </g>
    <g id="text_24">
     <!-- year -->
     <g transform="translate(491.847031 202.316563) scale(0.1 -0.1)">
      <use xlink:href="#DejaVuSans-79"/>
      <use xlink:href="#DejaVuSans-65" x="59.179688"/>
      <use xlink:href="#DejaVuSans-61" x="120.703125"/>
      <use xlink:href="#DejaVuSans-72" x="181.982422"/>
     </g>
    </g>
   </g>
   <g id="matplotlib.axis_4">
    <g id="ytick_4">
     <g id="line2d_32">
      <g>
       <use xlink:href="#mfce1d5d29e" x="367.095" y="49.606667" style="stroke: #000000; stroke-width: 0.8"/>
      </g>
     </g>
    </g>
    <g id="ytick_5">
     <g id="line2d_33">
      <g>
       <use xlink:href="#mfce1d5d29e" x="367.095" y="99.38" style="stroke: #000000; stroke-width: 0.8"/>
      </g>
     </g>
    </g>
    <g id="ytick_6">
     <g id="line2d_34">
      <g>
       <use xlink:href="#mfce1d5d29e" x="367.095" y="149.153333" style="stroke: #000000; stroke-width: 0.8"/>
      </g>
     </g>
    </g>
   </g>
   <g id="line2d_35">
    <path d="M 625.311716 217 
L 625.332542 149.153333 
L 625.351053 217 
M 626.0215 217 
L 626.06588 198.926667 
L 626.110261 217 
" clip-path="url(#p1754bdc4b5)" style="fill: none; stroke: #1f77b4; stroke-width: 1.5; stroke-linecap: square"/>
   </g>
   <g id="line2d_36">
    <path clip-path="url(#p1754bdc4b5)" style="fill: none; stroke: #ff7f0e; stroke-width: 1.5; stroke-linecap: square"/>
   </g>
   <g id="line2d_37">
    <path clip-path="url(#p1754bdc4b5)" style="fill: none; stroke: #2ca02c; stroke-width: 1.5; stroke-linecap: square"/>
   </g>
   <g id="line2d_38">
    <path clip-path="url(#p1754bdc4b5)" style="fill: none; stroke: #d62728; stroke-width: 1.5; stroke-linecap: square"/>
   </g>
   <g id="line2d_39">
    <path d="M 626.504792 217 
L 626.554773 149.153333 
" clip-path="url(#p1754bdc4b5)" style="fill: none; stroke: #9467bd; stroke-width: 1.5; stroke-linecap: square"/>
   </g>
   <g id="patch_6">
    <path d="M 367.095 174.04 
L 367.095 24.72 
" style="fill: none; stroke: #000000; stroke-width: 0.8; stroke-linejoin: miter; stroke-linecap: square"/>
   </g>
   <g id="patch_7">
    <path d="M 367.095 174.04 
L 638.91 174.04 
" style="fill: none; stroke: #000000; stroke-width: 0.8; stroke-linejoin: miter; stroke-linecap: square"/>
   </g>
   <g id="PathCollection_1">
    <defs>
     <path id="m2276899b82" d="M 0 2.5 
C 0.663008 2.5 1.29895 2.236584 1.767767 1.767767 
C 2.236584 1.29895 2.5 0.663008 2.5 0 
C 2.5 -0.663008 2.236584 -1.29895 1.767767 -1.767767 
C 1.29895 -2.236584 0.663008 -2.5 0 -2.5 
C -0.663008 -2.5 -1.29895 -2.236584 -1.767767 -1.767767 
C -2.236584 -1.29895 -2.5 -0.663008 -2.5 0 
C -2.5 0.663008 -2.236584 1.29895 -1.767767 1.767767 
C -1.29895 2.236584 -0.663008 2.5 0 2.5 
z
"/>
    </defs>
    <g clip-path="url(#p1754bdc4b5)">
     <use xlink:href="#m2276899b82" x="379.480783" y="53.126315" style="fill: #1f77b4"/>
     <use xlink:href="#m2276899b82" x="379.487331" y="54.549462" style="fill: #1f77b4"/>
     <use xlink:href="#m2276899b82" x="379.49012" y="49.225841" style="fill: #1f77b4"/>
     <use xlink:href="#m2276899b82" x="379.480783" y="54.017763" style="fill: #1f77b4"/>
     <use xlink:href="#m2276899b82" x="379.464439" y="50.8225" style="fill: #1f77b4"/>
     <use xlink:href="#m2276899b82" x="379.46696" y="47.464274" style="fill: #1f77b4"/>
     <use xlink:href="#m2276899b82" x="379.476776" y="46.249433" style="fill: #1f77b4"/>
     <use xlink:href="#m2276899b82" x="379.477727" y="53.674282" style="fill: #1f77b4"/>
     <use xlink:href="#m2276899b82" x="379.487889" y="50.344051" style="fill: #1f77b4"/>
     <use xlink:href="#m2276899b82" x="379.491696" y="48.979565" style="fill: #1f77b4"/>
     <use xlink:href="#m2276899b82" x="379.478873" y="54.007736" style="fill: #1f77b4"/>
     <use xlink:href="#m2276899b82" x="379.496373" y="54.533475" style="fill: #1f77b4"/>
     <use xlink:href="#m2276899b82" x="379.480783" y="52.346083" style="fill: #1f77b4"/>
     <use xlink:href="#m2276899b82" x="379.486442" y="49.302914" style="fill: #1f77b4"/>
     <use xlink:href="#m2276899b82" x="379.471524" y="52.385303" style="fill: #1f77b4"/>
     <use xlink:href="#m2276899b82" x="379.483839" y="46.005786" style="fill: #1f77b4"/>
     <use xlink:href="#m2276899b82" x="379.469961" y="50.938948" style="fill: #1f77b4"/>
     <use xlink:href="#m2276899b82" x="379.472053" y="44.881458" style="fill: #1f77b4"/>
     <use xlink:href="#m2276899b82" x="379.4786" y="51.103066" style="fill: #1f77b4"/>
     <use xlink:href="#m2276899b82" x="379.477145" y="53.939536" style="fill: #1f77b4"/>
     <use xlink:href="#m2276899b82" x="379.475794" y="49.314503" style="fill: #1f77b4"/>
     <use xlink:href="#m2276899b82" x="379.47951" y="48.35594" style="fill: #1f77b4"/>
     <use xlink:href="#m2276899b82" x="379.477873" y="45.759558" style="fill: #1f77b4"/>
     <use xlink:href="#m2276899b82" x="379.489513" y="53.942437" style="fill: #1f77b4"/>
     <use xlink:href="#m2276899b82" x="379.450227" y="52.016777" style="fill: #1f77b4"/>
     <use xlink:href="#m2276899b82" x="379.490968" y="45.599951" style="fill: #1f77b4"/>
     <use xlink:href="#m2276899b82" x="379.489271" y="50.714039" style="fill: #1f77b4"/>
     <use xlink:href="#m2276899b82" x="379.485876" y="44.754927" style="fill: #1f77b4"/>
    </g>
   </g>
   <g id="PathCollection_2">
    <g clip-path="url(#p1754bdc4b5)">
     <use xlink:href="#m2276899b82" x="379.506246" y="99.316953" style="fill: #1f77b4"/>
     <use xlink:href="#m2276899b82" x="379.515704" y="97.227883" style="fill: #1f77b4"/>
     <use xlink:href="#m2276899b82" x="379.508793" y="98.731285" style="fill: #1f77b4"/>
     <use xlink:href="#m2276899b82" x="379.506384" y="95.288748" style="fill: #1f77b4"/>
     <use xlink:href="#m2276899b82" x="379.4886" y="96.583536" style="fill: #1f77b4"/>
     <use xlink:href="#m2276899b82" x="379.528314" y="97.20016" style="fill: #1f77b4"/>
     <use xlink:href="#m2276899b82" x="379.491302" y="99.691486" style="fill: #1f77b4"/>
     <use xlink:href="#m2276899b82" x="379.506246" y="97.93101" style="fill: #1f77b4"/>
     <use xlink:href="#m2276899b82" x="379.505654" y="98.383389" style="fill: #1f77b4"/>
     <use xlink:href="#m2276899b82" x="379.500426" y="100.610959" style="fill: #1f77b4"/>
     <use xlink:href="#m2276899b82" x="379.515158" y="99.431921" style="fill: #1f77b4"/>
     <use xlink:href="#m2276899b82" x="379.508844" y="100.418363" style="fill: #1f77b4"/>
     <use xlink:href="#m2276899b82" x="379.509075" y="99.884454" style="fill: #1f77b4"/>
     <use xlink:href="#m2276899b82" x="379.503983" y="100.800636" style="fill: #1f77b4"/>
     <use xlink:href="#m2276899b82" x="379.501154" y="98.378248" style="fill: #1f77b4"/>
     <use xlink:href="#m2276899b82" x="379.519487" y="103.858148" style="fill: #1f77b4"/>
     <use xlink:href="#m2276899b82" x="379.49988" y="103.709623" style="fill: #1f77b4"/>
     <use xlink:href="#m2276899b82" x="379.500738" y="97.503296" style="fill: #1f77b4"/>
     <use xlink:href="#m2276899b82" x="379.495333" y="95.590124" style="fill: #1f77b4"/>
     <use xlink:href="#m2276899b82" x="379.506974" y="94.772858" style="fill: #1f77b4"/>
     <use xlink:href="#m2276899b82" x="379.505103" y="101.480574" style="fill: #1f77b4"/>
     <use xlink:href="#m2276899b82" x="379.494788" y="100.42234" style="fill: #1f77b4"/>
     <use xlink:href="#m2276899b82" x="379.497516" y="100.071238" style="fill: #1f77b4"/>
     <use xlink:href="#m2276899b82" x="379.484421" y="99.290142" style="fill: #1f77b4"/>
     <use xlink:href="#m2276899b82" x="379.501154" y="97.72616" style="fill: #1f77b4"/>
     <use xlink:href="#m2276899b82" x="379.490968" y="96.12138" style="fill: #1f77b4"/>
     <use xlink:href="#m2276899b82" x="379.503141" y="97.890584" style="fill: #1f77b4"/>
     <use xlink:href="#m2276899b82" x="379.507519" y="101.642476" style="fill: #1f77b4"/>
    </g>
   </g>
   <g id="PathCollection_3">
    <g clip-path="url(#p1754bdc4b5)">
     <use xlink:href="#m2276899b82" x="379.50581" y="148.000947" style="fill: #1f77b4"/>
     <use xlink:href="#m2276899b82" x="379.507556" y="149.897546" style="fill: #1f77b4"/>
     <use xlink:href="#m2276899b82" x="379.513376" y="148.700291" style="fill: #1f77b4"/>
     <use xlink:href="#m2276899b82" x="379.522735" y="152.96111" style="fill: #1f77b4"/>
     <use xlink:href="#m2276899b82" x="379.514672" y="153.399514" style="fill: #1f77b4"/>
     <use xlink:href="#m2276899b82" x="379.522688" y="152.376007" style="fill: #1f77b4"/>
     <use xlink:href="#m2276899b82" x="379.52306" y="144.887103" style="fill: #1f77b4"/>
     <use xlink:href="#m2276899b82" x="379.515006" y="148.904225" style="fill: #1f77b4"/>
     <use xlink:href="#m2276899b82" x="379.519117" y="147.297679" style="fill: #1f77b4"/>
     <use xlink:href="#m2276899b82" x="379.525016" y="148.514119" style="fill: #1f77b4"/>
     <use xlink:href="#m2276899b82" x="379.520506" y="149.073563" style="fill: #1f77b4"/>
     <use xlink:href="#m2276899b82" x="379.51745" y="149.318123" style="fill: #1f77b4"/>
     <use xlink:href="#m2276899b82" x="379.513376" y="147.435737" style="fill: #1f77b4"/>
     <use xlink:href="#m2276899b82" x="379.528314" y="146.524452" style="fill: #1f77b4"/>
     <use xlink:href="#m2276899b82" x="379.519672" y="149.644493" style="fill: #1f77b4"/>
     <use xlink:href="#m2276899b82" x="379.51908" y="149.377182" style="fill: #1f77b4"/>
     <use xlink:href="#m2276899b82" x="379.519996" y="145.60118" style="fill: #1f77b4"/>
     <use xlink:href="#m2276899b82" x="379.516951" y="144.383562" style="fill: #1f77b4"/>
     <use xlink:href="#m2276899b82" x="379.527926" y="148.260001" style="fill: #1f77b4"/>
     <use xlink:href="#m2276899b82" x="379.516868" y="145.946105" style="fill: #1f77b4"/>
     <use xlink:href="#m2276899b82" x="379.511962" y="148.381274" style="fill: #1f77b4"/>
     <use xlink:href="#m2276899b82" x="379.517959" y="152.580795" style="fill: #1f77b4"/>
     <use xlink:href="#m2276899b82" x="379.525598" y="146.8592" style="fill: #1f77b4"/>
     <use xlink:href="#m2276899b82" x="379.51745" y="148.161749" style="fill: #1f77b4"/>
     <use xlink:href="#m2276899b82" x="379.464487" y="148.880107" style="fill: #1f77b4"/>
     <use xlink:href="#m2276899b82" x="379.493005" y="148.518154" style="fill: #1f77b4"/>
     <use xlink:href="#m2276899b82" x="379.512334" y="153.316691" style="fill: #1f77b4"/>
     <use xlink:href="#m2276899b82" x="379.524008" y="153.123575" style="fill: #1f77b4"/>
    </g>
   </g>
   <g id="text_25">
    <!-- round = SemiFinal -->
    <g transform="translate(457.086094 18.72) scale(0.1 -0.1)">
     <use xlink:href="#DejaVuSans-72"/>
     <use xlink:href="#DejaVuSans-6f" x="38.863281"/>
     <use xlink:href="#DejaVuSans-75" x="100.044922"/>
     <use xlink:href="#DejaVuSans-6e" x="163.423828"/>
     <use xlink:href="#DejaVuSans-64" x="226.802734"/>
     <use xlink:href="#DejaVuSans-20" x="290.279297"/>
     <use xlink:href="#DejaVuSans-3d" x="322.066406"/>
     <use xlink:href="#DejaVuSans-20" x="405.855469"/>
     <use xlink:href="#DejaVuSans-53" x="437.642578"/>
     <use xlink:href="#DejaVuSans-65" x="501.119141"/>
     <use xlink:href="#DejaVuSans-6d" x="562.642578"/>
     <use xlink:href="#DejaVuSans-69" x="660.054688"/>
     <use xlink:href="#DejaVuSans-46" x="687.837891"/>
     <use xlink:href="#DejaVuSans-69" x="738.107422"/>
     <use xlink:href="#DejaVuSans-6e" x="765.890625"/>
     <use xlink:href="#DejaVuSans-61" x="829.269531"/>
     <use xlink:href="#DejaVuSans-6c" x="890.548828"/>
    </g>
   </g>
  </g>
  <g id="legend_1">
   <g id="text_26">
    <!-- separatedBy -->
    <g transform="translate(569.081094 74.064063) scale(0.1 -0.1)">
     <defs>
      <path id="DejaVuSans-73" d="M 2834 3397 
L 2834 2853 
Q 2591 2978 2328 3040 
Q 2066 3103 1784 3103 
Q 1356 3103 1142 2972 
Q 928 2841 928 2578 
Q 928 2378 1081 2264 
Q 1234 2150 1697 2047 
L 1894 2003 
Q 2506 1872 2764 1633 
Q 3022 1394 3022 966 
Q 3022 478 2636 193 
Q 2250 -91 1575 -91 
Q 1294 -91 989 -36 
Q 684 19 347 128 
L 347 722 
Q 666 556 975 473 
Q 1284 391 1588 391 
Q 1994 391 2212 530 
Q 2431 669 2431 922 
Q 2431 1156 2273 1281 
Q 2116 1406 1581 1522 
L 1381 1569 
Q 847 1681 609 1914 
Q 372 2147 372 2553 
Q 372 3047 722 3315 
Q 1072 3584 1716 3584 
Q 2034 3584 2315 3537 
Q 2597 3491 2834 3397 
z
" transform="scale(0.015625)"/>
      <path id="DejaVuSans-70" d="M 1159 525 
L 1159 -1331 
L 581 -1331 
L 581 3500 
L 1159 3500 
L 1159 2969 
Q 1341 3281 1617 3432 
Q 1894 3584 2278 3584 
Q 2916 3584 3314 3078 
Q 3713 2572 3713 1747 
Q 3713 922 3314 415 
Q 2916 -91 2278 -91 
Q 1894 -91 1617 61 
Q 1341 213 1159 525 
z
M 3116 1747 
Q 3116 2381 2855 2742 
Q 2594 3103 2138 3103 
Q 1681 3103 1420 2742 
Q 1159 2381 1159 1747 
Q 1159 1113 1420 752 
Q 1681 391 2138 391 
Q 2594 391 2855 752 
Q 3116 1113 3116 1747 
z
" transform="scale(0.015625)"/>
      <path id="DejaVuSans-42" d="M 1259 2228 
L 1259 519 
L 2272 519 
Q 2781 519 3026 730 
Q 3272 941 3272 1375 
Q 3272 1813 3026 2020 
Q 2781 2228 2272 2228 
L 1259 2228 
z
M 1259 4147 
L 1259 2741 
L 2194 2741 
Q 2656 2741 2882 2914 
Q 3109 3088 3109 3444 
Q 3109 3797 2882 3972 
Q 2656 4147 2194 4147 
L 1259 4147 
z
M 628 4666 
L 2241 4666 
Q 2963 4666 3353 4366 
Q 3744 4066 3744 3513 
Q 3744 3084 3544 2831 
Q 3344 2578 2956 2516 
Q 3422 2416 3680 2098 
Q 3938 1781 3938 1306 
Q 3938 681 3513 340 
Q 3088 0 2303 0 
L 628 0 
L 628 4666 
z
" transform="scale(0.015625)"/>
     </defs>
     <use xlink:href="#DejaVuSans-73"/>
     <use xlink:href="#DejaVuSans-65" x="52.099609"/>
     <use xlink:href="#DejaVuSans-70" x="113.623047"/>
     <use xlink:href="#DejaVuSans-61" x="177.099609"/>
     <use xlink:href="#DejaVuSans-72" x="238.378906"/>
     <use xlink:href="#DejaVuSans-61" x="279.492188"/>
     <use xlink:href="#DejaVuSans-74" x="340.771484"/>
     <use xlink:href="#DejaVuSans-65" x="379.980469"/>
     <use xlink:href="#DejaVuSans-64" x="441.503906"/>
     <use xlink:href="#DejaVuSans-42" x="504.980469"/>
     <use xlink:href="#DejaVuSans-79" x="573.583984"/>
    </g>
   </g>
   <g id="line2d_40">
    <path d="M 560.731875 85.242188 
L 570.731875 85.242188 
L 580.731875 85.242188 
" style="fill: none; stroke: #1f77b4; stroke-width: 1.5; stroke-linecap: square"/>
   </g>
   <g id="text_27">
    <!-- countback -->
    <g transform="translate(588.731875 88.742188) scale(0.1 -0.1)">
     <defs>
      <path id="DejaVuSans-62" d="M 3116 1747 
Q 3116 2381 2855 2742 
Q 2594 3103 2138 3103 
Q 1681 3103 1420 2742 
Q 1159 2381 1159 1747 
Q 1159 1113 1420 752 
Q 1681 391 2138 391 
Q 2594 391 2855 752 
Q 3116 1113 3116 1747 
z
M 1159 2969 
Q 1341 3281 1617 3432 
Q 1894 3584 2278 3584 
Q 2916 3584 3314 3078 
Q 3713 2572 3713 1747 
Q 3713 922 3314 415 
Q 2916 -91 2278 -91 
Q 1894 -91 1617 61 
Q 1341 213 1159 525 
L 1159 0 
L 581 0 
L 581 4863 
L 1159 4863 
L 1159 2969 
z
" transform="scale(0.015625)"/>
      <path id="DejaVuSans-6b" d="M 581 4863 
L 1159 4863 
L 1159 1991 
L 2875 3500 
L 3609 3500 
L 1753 1863 
L 3688 0 
L 2938 0 
L 1159 1709 
L 1159 0 
L 581 0 
L 581 4863 
z
" transform="scale(0.015625)"/>
     </defs>
     <use xlink:href="#DejaVuSans-63"/>
     <use xlink:href="#DejaVuSans-6f" x="54.980469"/>
     <use xlink:href="#DejaVuSans-75" x="116.162109"/>
     <use xlink:href="#DejaVuSans-6e" x="179.541016"/>
     <use xlink:href="#DejaVuSans-74" x="242.919922"/>
     <use xlink:href="#DejaVuSans-62" x="282.128906"/>
     <use xlink:href="#DejaVuSans-61" x="345.605469"/>
     <use xlink:href="#DejaVuSans-63" x="406.884766"/>
     <use xlink:href="#DejaVuSans-6b" x="461.865234"/>
    </g>
   </g>
   <g id="line2d_41">
    <path d="M 560.731875 99.920312 
L 570.731875 99.920312 
L 580.731875 99.920312 
" style="fill: none; stroke: #ff7f0e; stroke-width: 1.5; stroke-linecap: square"/>
   </g>
   <g id="text_28">
    <!-- top -->
    <g transform="translate(588.731875 103.420312) scale(0.1 -0.1)">
     <use xlink:href="#DejaVuSans-74"/>
     <use xlink:href="#DejaVuSans-6f" x="39.208984"/>
     <use xlink:href="#DejaVuSans-70" x="100.390625"/>
    </g>
   </g>
   <g id="line2d_42">
    <path d="M 560.731875 114.598438 
L 570.731875 114.598438 
L 580.731875 114.598438 
" style="fill: none; stroke: #2ca02c; stroke-width: 1.5; stroke-linecap: square"/>
   </g>
   <g id="text_29">
    <!-- top tries -->
    <g transform="translate(588.731875 118.098438) scale(0.1 -0.1)">
     <use xlink:href="#DejaVuSans-74"/>
     <use xlink:href="#DejaVuSans-6f" x="39.208984"/>
     <use xlink:href="#DejaVuSans-70" x="100.390625"/>
     <use xlink:href="#DejaVuSans-20" x="163.867188"/>
     <use xlink:href="#DejaVuSans-74" x="195.654297"/>
     <use xlink:href="#DejaVuSans-72" x="234.863281"/>
     <use xlink:href="#DejaVuSans-69" x="275.976562"/>
     <use xlink:href="#DejaVuSans-65" x="303.759766"/>
     <use xlink:href="#DejaVuSans-73" x="365.283203"/>
    </g>
   </g>
   <g id="line2d_43">
    <path d="M 560.731875 129.276563 
L 570.731875 129.276563 
L 580.731875 129.276563 
" style="fill: none; stroke: #d62728; stroke-width: 1.5; stroke-linecap: square"/>
   </g>
   <g id="text_30">
    <!-- zone -->
    <g transform="translate(588.731875 132.776563) scale(0.1 -0.1)">
     <defs>
      <path id="DejaVuSans-7a" d="M 353 3500 
L 3084 3500 
L 3084 2975 
L 922 459 
L 3084 459 
L 3084 0 
L 275 0 
L 275 525 
L 2438 3041 
L 353 3041 
L 353 3500 
z
" transform="scale(0.015625)"/>
     </defs>
     <use xlink:href="#DejaVuSans-7a"/>
     <use xlink:href="#DejaVuSans-6f" x="52.490234"/>
     <use xlink:href="#DejaVuSans-6e" x="113.671875"/>
     <use xlink:href="#DejaVuSans-65" x="177.050781"/>
    </g>
   </g>
   <g id="line2d_44">
    <path d="M 560.731875 143.954688 
L 570.731875 143.954688 
L 580.731875 143.954688 
" style="fill: none; stroke: #9467bd; stroke-width: 1.5; stroke-linecap: square"/>
   </g>
   <g id="text_31">
    <!-- zone tries -->
    <g transform="translate(588.731875 147.454688) scale(0.1 -0.1)">
     <use xlink:href="#DejaVuSans-7a"/>
     <use xlink:href="#DejaVuSans-6f" x="52.490234"/>
     <use xlink:href="#DejaVuSans-6e" x="113.671875"/>
     <use xlink:href="#DejaVuSans-65" x="177.050781"/>
     <use xlink:href="#DejaVuSans-20" x="238.574219"/>
     <use xlink:href="#DejaVuSans-74" x="270.361328"/>
     <use xlink:href="#DejaVuSans-72" x="309.570312"/>
     <use xlink:href="#DejaVuSans-69" x="350.683594"/>
     <use xlink:href="#DejaVuSans-65" x="378.466797"/>
     <use xlink:href="#DejaVuSans-73" x="439.990234"/>
    </g>
   </g>
  </g>
 </g>
 <defs>
  <clipPath id="pfd79f799d7">
   <rect x="80.98" y="24.72" width="271.815" height="149.32"/>
  </clipPath>
  <clipPath id="p1754bdc4b5">
   <rect x="367.095" y="24.72" width="271.815" height="149.32"/>
  </clipPath>
 </defs>
</svg>
