<?xml version="1.0" encoding="utf-8" standalone="no"?>
<!DOCTYPE svg PUBLIC "-//W3C//DTD SVG 1.1//EN"
  "http://www.w3.org/Graphics/SVG/1.1/DTD/svg11.dtd">
<svg xmlns:xlink="http://www.w3.org/1999/xlink" width="576pt" height="216pt" viewBox="0 0 576 216" xmlns="http://www.w3.org/2000/svg" version="1.1">
 <metadata>
  <rdf:RDF xmlns:dc="http://purl.org/dc/elements/1.1/" xmlns:cc="http://creativecommons.org/ns#" xmlns:rdf="http://www.w3.org/1999/02/22-rdf-syntax-ns#">
   <cc:Work>
    <dc:type rdf:resource="http://purl.org/dc/dcmitype/StillImage"/>
    <dc:date>1980-01-01T00:00:00+00:00</dc:date>
    <dc:format>image/svg+xml</dc:format>
    <dc:creator>
     <cc:Agent>
      <dc:title>Matplotlib v3.6.2, https://matplotlib.org/</dc:title>
     </cc:Agent>
    </dc:creator>
   </cc:Work>
  </rdf:RDF>
 </metadata>
 <defs>
  <style type="text/css">*{stroke-linejoin: round; stroke-linecap: butt}</style>
 </defs>
 <g id="figure_1">
  <g id="patch_1">
   <path d="M 0 216 
L 576 216 
L 576 0 
L 0 0 
z
" style="fill: #ffffff"/>
  </g>
  <g id="axes_1">
   <g id="patch_2">
    <path d="M 95.06 174.04 
L 565.2 174.04 
L 565.2 10.8 
L 95.06 10.8 
z
" style="fill: #ffffff"/>
   </g>
   <g id="PathCollection_1"/>
   <g id="PathCollection_2"/>
   <g id="matplotlib.axis_1">
    <g id="xtick_1">
     <g id="line2d_1">
      <defs>
       <path id="md17af6b7c8" d="M 0 0 
L 0 3.5 
" style="stroke: #000000; stroke-width: 0.8"/>
      </defs>
      <g>
       <use xlink:href="#md17af6b7c8" x="149.878696" y="174.04" style="stroke: #000000; stroke-width: 0.8"/>
      </g>
     </g>
     <g id="text_1">
      <!-- 0.3 -->
      <g transform="translate(141.927133 188.638438) scale(0.1 -0.1)">
       <defs>
        <path id="DejaVuSans-30" d="M 2034 4250 
Q 1547 4250 1301 3770 
Q 1056 3291 1056 2328 
Q 1056 1369 1301 889 
Q 1547 409 2034 409 
Q 2525 409 2770 889 
Q 3016 1369 3016 2328 
Q 3016 3291 2770 3770 
Q 2525 4250 2034 4250 
z
M 2034 4750 
Q 2819 4750 3233 4129 
Q 3647 3509 3647 2328 
Q 3647 1150 3233 529 
Q 2819 -91 2034 -91 
Q 1250 -91 836 529 
Q 422 1150 422 2328 
Q 422 3509 836 4129 
Q 1250 4750 2034 4750 
z
" transform="scale(0.015625)"/>
        <path id="DejaVuSans-2e" d="M 684 794 
L 1344 794 
L 1344 0 
L 684 0 
L 684 794 
z
" transform="scale(0.015625)"/>
        <path id="DejaVuSans-33" d="M 2597 2516 
Q 3050 2419 3304 2112 
Q 3559 1806 3559 1356 
Q 3559 666 3084 287 
Q 2609 -91 1734 -91 
Q 1441 -91 1130 -33 
Q 819 25 488 141 
L 488 750 
Q 750 597 1062 519 
Q 1375 441 1716 441 
Q 2309 441 2620 675 
Q 2931 909 2931 1356 
Q 2931 1769 2642 2001 
Q 2353 2234 1838 2234 
L 1294 2234 
L 1294 2753 
L 1863 2753 
Q 2328 2753 2575 2939 
Q 2822 3125 2822 3475 
Q 2822 3834 2567 4026 
Q 2313 4219 1838 4219 
Q 1578 4219 1281 4162 
Q 984 4106 628 3988 
L 628 4550 
Q 988 4650 1302 4700 
Q 1616 4750 1894 4750 
Q 2613 4750 3031 4423 
Q 3450 4097 3450 3541 
Q 3450 3153 3228 2886 
Q 3006 2619 2597 2516 
z
" transform="scale(0.015625)"/>
       </defs>
       <use xlink:href="#DejaVuSans-30"/>
       <use xlink:href="#DejaVuSans-2e" x="63.623047"/>
       <use xlink:href="#DejaVuSans-33" x="95.410156"/>
      </g>
     </g>
    </g>
    <g id="xtick_2">
     <g id="line2d_2">
      <g>
       <use xlink:href="#md17af6b7c8" x="216.776087" y="174.04" style="stroke: #000000; stroke-width: 0.8"/>
      </g>
     </g>
     <g id="text_2">
      <!-- 0.4 -->
      <g transform="translate(208.824524 188.638438) scale(0.1 -0.1)">
       <defs>
        <path id="DejaVuSans-34" d="M 2419 4116 
L 825 1625 
L 2419 1625 
L 2419 4116 
z
M 2253 4666 
L 3047 4666 
L 3047 1625 
L 3713 1625 
L 3713 1100 
L 3047 1100 
L 3047 0 
L 2419 0 
L 2419 1100 
L 313 1100 
L 313 1709 
L 2253 4666 
z
" transform="scale(0.015625)"/>
       </defs>
       <use xlink:href="#DejaVuSans-30"/>
       <use xlink:href="#DejaVuSans-2e" x="63.623047"/>
       <use xlink:href="#DejaVuSans-34" x="95.410156"/>
      </g>
     </g>
    </g>
    <g id="xtick_3">
     <g id="line2d_3">
      <g>
       <use xlink:href="#md17af6b7c8" x="283.673478" y="174.04" style="stroke: #000000; stroke-width: 0.8"/>
      </g>
     </g>
     <g id="text_3">
      <!-- 0.5 -->
      <g transform="translate(275.721916 188.638438) scale(0.1 -0.1)">
       <defs>
        <path id="DejaVuSans-35" d="M 691 4666 
L 3169 4666 
L 3169 4134 
L 1269 4134 
L 1269 2991 
Q 1406 3038 1543 3061 
Q 1681 3084 1819 3084 
Q 2600 3084 3056 2656 
Q 3513 2228 3513 1497 
Q 3513 744 3044 326 
Q 2575 -91 1722 -91 
Q 1428 -91 1123 -41 
Q 819 9 494 109 
L 494 744 
Q 775 591 1075 516 
Q 1375 441 1709 441 
Q 2250 441 2565 725 
Q 2881 1009 2881 1497 
Q 2881 1984 2565 2268 
Q 2250 2553 1709 2553 
Q 1456 2553 1204 2497 
Q 953 2441 691 2322 
L 691 4666 
z
" transform="scale(0.015625)"/>
       </defs>
       <use xlink:href="#DejaVuSans-30"/>
       <use xlink:href="#DejaVuSans-2e" x="63.623047"/>
       <use xlink:href="#DejaVuSans-35" x="95.410156"/>
      </g>
     </g>
    </g>
    <g id="xtick_4">
     <g id="line2d_4">
      <g>
       <use xlink:href="#md17af6b7c8" x="350.57087" y="174.04" style="stroke: #000000; stroke-width: 0.8"/>
      </g>
     </g>
     <g id="text_4">
      <!-- 0.6 -->
      <g transform="translate(342.619307 188.638438) scale(0.1 -0.1)">
       <defs>
        <path id="DejaVuSans-36" d="M 2113 2584 
Q 1688 2584 1439 2293 
Q 1191 2003 1191 1497 
Q 1191 994 1439 701 
Q 1688 409 2113 409 
Q 2538 409 2786 701 
Q 3034 994 3034 1497 
Q 3034 2003 2786 2293 
Q 2538 2584 2113 2584 
z
M 3366 4563 
L 3366 3988 
Q 3128 4100 2886 4159 
Q 2644 4219 2406 4219 
Q 1781 4219 1451 3797 
Q 1122 3375 1075 2522 
Q 1259 2794 1537 2939 
Q 1816 3084 2150 3084 
Q 2853 3084 3261 2657 
Q 3669 2231 3669 1497 
Q 3669 778 3244 343 
Q 2819 -91 2113 -91 
Q 1303 -91 875 529 
Q 447 1150 447 2328 
Q 447 3434 972 4092 
Q 1497 4750 2381 4750 
Q 2619 4750 2861 4703 
Q 3103 4656 3366 4563 
z
" transform="scale(0.015625)"/>
       </defs>
       <use xlink:href="#DejaVuSans-30"/>
       <use xlink:href="#DejaVuSans-2e" x="63.623047"/>
       <use xlink:href="#DejaVuSans-36" x="95.410156"/>
      </g>
     </g>
    </g>
    <g id="xtick_5">
     <g id="line2d_5">
      <g>
       <use xlink:href="#md17af6b7c8" x="417.468261" y="174.04" style="stroke: #000000; stroke-width: 0.8"/>
      </g>
     </g>
     <g id="text_5">
      <!-- 0.7 -->
      <g transform="translate(409.516698 188.638438) scale(0.1 -0.1)">
       <defs>
        <path id="DejaVuSans-37" d="M 525 4666 
L 3525 4666 
L 3525 4397 
L 1831 0 
L 1172 0 
L 2766 4134 
L 525 4134 
L 525 4666 
z
" transform="scale(0.015625)"/>
       </defs>
       <use xlink:href="#DejaVuSans-30"/>
       <use xlink:href="#DejaVuSans-2e" x="63.623047"/>
       <use xlink:href="#DejaVuSans-37" x="95.410156"/>
      </g>
     </g>
    </g>
    <g id="xtick_6">
     <g id="line2d_6">
      <g>
       <use xlink:href="#md17af6b7c8" x="484.365652" y="174.04" style="stroke: #000000; stroke-width: 0.8"/>
      </g>
     </g>
     <g id="text_6">
      <!-- 0.8 -->
      <g transform="translate(476.41409 188.638438) scale(0.1 -0.1)">
       <defs>
        <path id="DejaVuSans-38" d="M 2034 2216 
Q 1584 2216 1326 1975 
Q 1069 1734 1069 1313 
Q 1069 891 1326 650 
Q 1584 409 2034 409 
Q 2484 409 2743 651 
Q 3003 894 3003 1313 
Q 3003 1734 2745 1975 
Q 2488 2216 2034 2216 
z
M 1403 2484 
Q 997 2584 770 2862 
Q 544 3141 544 3541 
Q 544 4100 942 4425 
Q 1341 4750 2034 4750 
Q 2731 4750 3128 4425 
Q 3525 4100 3525 3541 
Q 3525 3141 3298 2862 
Q 3072 2584 2669 2484 
Q 3125 2378 3379 2068 
Q 3634 1759 3634 1313 
Q 3634 634 3220 271 
Q 2806 -91 2034 -91 
Q 1263 -91 848 271 
Q 434 634 434 1313 
Q 434 1759 690 2068 
Q 947 2378 1403 2484 
z
M 1172 3481 
Q 1172 3119 1398 2916 
Q 1625 2713 2034 2713 
Q 2441 2713 2670 2916 
Q 2900 3119 2900 3481 
Q 2900 3844 2670 4047 
Q 2441 4250 2034 4250 
Q 1625 4250 1398 4047 
Q 1172 3844 1172 3481 
z
" transform="scale(0.015625)"/>
       </defs>
       <use xlink:href="#DejaVuSans-30"/>
       <use xlink:href="#DejaVuSans-2e" x="63.623047"/>
       <use xlink:href="#DejaVuSans-38" x="95.410156"/>
      </g>
     </g>
    </g>
    <g id="xtick_7">
     <g id="line2d_7">
      <g>
       <use xlink:href="#md17af6b7c8" x="551.263043" y="174.04" style="stroke: #000000; stroke-width: 0.8"/>
      </g>
     </g>
     <g id="text_7">
      <!-- 0.9 -->
      <g transform="translate(543.311481 188.638438) scale(0.1 -0.1)">
       <defs>
        <path id="DejaVuSans-39" d="M 703 97 
L 703 672 
Q 941 559 1184 500 
Q 1428 441 1663 441 
Q 2288 441 2617 861 
Q 2947 1281 2994 2138 
Q 2813 1869 2534 1725 
Q 2256 1581 1919 1581 
Q 1219 1581 811 2004 
Q 403 2428 403 3163 
Q 403 3881 828 4315 
Q 1253 4750 1959 4750 
Q 2769 4750 3195 4129 
Q 3622 3509 3622 2328 
Q 3622 1225 3098 567 
Q 2575 -91 1691 -91 
Q 1453 -91 1209 -44 
Q 966 3 703 97 
z
M 1959 2075 
Q 2384 2075 2632 2365 
Q 2881 2656 2881 3163 
Q 2881 3666 2632 3958 
Q 2384 4250 1959 4250 
Q 1534 4250 1286 3958 
Q 1038 3666 1038 3163 
Q 1038 2656 1286 2365 
Q 1534 2075 1959 2075 
z
" transform="scale(0.015625)"/>
       </defs>
       <use xlink:href="#DejaVuSans-30"/>
       <use xlink:href="#DejaVuSans-2e" x="63.623047"/>
       <use xlink:href="#DejaVuSans-39" x="95.410156"/>
      </g>
     </g>
    </g>
    <g id="text_8">
     <!-- top -->
     <g transform="translate(321.93625 202.316563) scale(0.1 -0.1)">
      <defs>
       <path id="DejaVuSans-74" d="M 1172 4494 
L 1172 3500 
L 2356 3500 
L 2356 3053 
L 1172 3053 
L 1172 1153 
Q 1172 725 1289 603 
Q 1406 481 1766 481 
L 2356 481 
L 2356 0 
L 1766 0 
Q 1100 0 847 248 
Q 594 497 594 1153 
L 594 3053 
L 172 3053 
L 172 3500 
L 594 3500 
L 594 4494 
L 1172 4494 
z
" transform="scale(0.015625)"/>
       <path id="DejaVuSans-6f" d="M 1959 3097 
Q 1497 3097 1228 2736 
Q 959 2375 959 1747 
Q 959 1119 1226 758 
Q 1494 397 1959 397 
Q 2419 397 2687 759 
Q 2956 1122 2956 1747 
Q 2956 2369 2687 2733 
Q 2419 3097 1959 3097 
z
M 1959 3584 
Q 2709 3584 3137 3096 
Q 3566 2609 3566 1747 
Q 3566 888 3137 398 
Q 2709 -91 1959 -91 
Q 1206 -91 779 398 
Q 353 888 353 1747 
Q 353 2609 779 3096 
Q 1206 3584 1959 3584 
z
" transform="scale(0.015625)"/>
       <path id="DejaVuSans-70" d="M 1159 525 
L 1159 -1331 
L 581 -1331 
L 581 3500 
L 1159 3500 
L 1159 2969 
Q 1341 3281 1617 3432 
Q 1894 3584 2278 3584 
Q 2916 3584 3314 3078 
Q 3713 2572 3713 1747 
Q 3713 922 3314 415 
Q 2916 -91 2278 -91 
Q 1894 -91 1617 61 
Q 1341 213 1159 525 
z
M 3116 1747 
Q 3116 2381 2855 2742 
Q 2594 3103 2138 3103 
Q 1681 3103 1420 2742 
Q 1159 2381 1159 1747 
Q 1159 1113 1420 752 
Q 1681 391 2138 391 
Q 2594 391 2855 752 
Q 3116 1113 3116 1747 
z
" transform="scale(0.015625)"/>
      </defs>
      <use xlink:href="#DejaVuSans-74"/>
      <use xlink:href="#DejaVuSans-6f" x="39.208984"/>
      <use xlink:href="#DejaVuSans-70" x="100.390625"/>
     </g>
    </g>
   </g>
   <g id="matplotlib.axis_2">
    <g id="ytick_1">
     <g id="line2d_8">
      <defs>
       <path id="ma97ac2d4b5" d="M 0 0 
L -3.5 0 
" style="stroke: #000000; stroke-width: 0.8"/>
      </defs>
      <g>
       <use xlink:href="#ma97ac2d4b5" x="95.06" y="38.006667" style="stroke: #000000; stroke-width: 0.8"/>
      </g>
     </g>
     <g id="text_9">
      <!-- Final -->
      <g transform="translate(65.011562 41.805885) scale(0.1 -0.1)">
       <defs>
        <path id="DejaVuSans-46" d="M 628 4666 
L 3309 4666 
L 3309 4134 
L 1259 4134 
L 1259 2759 
L 3109 2759 
L 3109 2228 
L 1259 2228 
L 1259 0 
L 628 0 
L 628 4666 
z
" transform="scale(0.015625)"/>
        <path id="DejaVuSans-69" d="M 603 3500 
L 1178 3500 
L 1178 0 
L 603 0 
L 603 3500 
z
M 603 4863 
L 1178 4863 
L 1178 4134 
L 603 4134 
L 603 4863 
z
" transform="scale(0.015625)"/>
        <path id="DejaVuSans-6e" d="M 3513 2113 
L 3513 0 
L 2938 0 
L 2938 2094 
Q 2938 2591 2744 2837 
Q 2550 3084 2163 3084 
Q 1697 3084 1428 2787 
Q 1159 2491 1159 1978 
L 1159 0 
L 581 0 
L 581 3500 
L 1159 3500 
L 1159 2956 
Q 1366 3272 1645 3428 
Q 1925 3584 2291 3584 
Q 2894 3584 3203 3211 
Q 3513 2838 3513 2113 
z
" transform="scale(0.015625)"/>
        <path id="DejaVuSans-61" d="M 2194 1759 
Q 1497 1759 1228 1600 
Q 959 1441 959 1056 
Q 959 750 1161 570 
Q 1363 391 1709 391 
Q 2188 391 2477 730 
Q 2766 1069 2766 1631 
L 2766 1759 
L 2194 1759 
z
M 3341 1997 
L 3341 0 
L 2766 0 
L 2766 531 
Q 2569 213 2275 61 
Q 1981 -91 1556 -91 
Q 1019 -91 701 211 
Q 384 513 384 1019 
Q 384 1609 779 1909 
Q 1175 2209 1959 2209 
L 2766 2209 
L 2766 2266 
Q 2766 2663 2505 2880 
Q 2244 3097 1772 3097 
Q 1472 3097 1187 3025 
Q 903 2953 641 2809 
L 641 3341 
Q 956 3463 1253 3523 
Q 1550 3584 1831 3584 
Q 2591 3584 2966 3190 
Q 3341 2797 3341 1997 
z
" transform="scale(0.015625)"/>
        <path id="DejaVuSans-6c" d="M 603 4863 
L 1178 4863 
L 1178 0 
L 603 0 
L 603 4863 
z
" transform="scale(0.015625)"/>
       </defs>
       <use xlink:href="#DejaVuSans-46"/>
       <use xlink:href="#DejaVuSans-69" x="50.269531"/>
       <use xlink:href="#DejaVuSans-6e" x="78.052734"/>
       <use xlink:href="#DejaVuSans-61" x="141.431641"/>
       <use xlink:href="#DejaVuSans-6c" x="202.710938"/>
      </g>
     </g>
    </g>
    <g id="ytick_2">
     <g id="line2d_9">
      <g>
       <use xlink:href="#ma97ac2d4b5" x="95.06" y="92.42" style="stroke: #000000; stroke-width: 0.8"/>
      </g>
     </g>
     <g id="text_10">
      <!-- SemiFinal -->
      <g transform="translate(39.99125 96.219219) scale(0.1 -0.1)">
       <defs>
        <path id="DejaVuSans-53" d="M 3425 4513 
L 3425 3897 
Q 3066 4069 2747 4153 
Q 2428 4238 2131 4238 
Q 1616 4238 1336 4038 
Q 1056 3838 1056 3469 
Q 1056 3159 1242 3001 
Q 1428 2844 1947 2747 
L 2328 2669 
Q 3034 2534 3370 2195 
Q 3706 1856 3706 1288 
Q 3706 609 3251 259 
Q 2797 -91 1919 -91 
Q 1588 -91 1214 -16 
Q 841 59 441 206 
L 441 856 
Q 825 641 1194 531 
Q 1563 422 1919 422 
Q 2459 422 2753 634 
Q 3047 847 3047 1241 
Q 3047 1584 2836 1778 
Q 2625 1972 2144 2069 
L 1759 2144 
Q 1053 2284 737 2584 
Q 422 2884 422 3419 
Q 422 4038 858 4394 
Q 1294 4750 2059 4750 
Q 2388 4750 2728 4690 
Q 3069 4631 3425 4513 
z
" transform="scale(0.015625)"/>
        <path id="DejaVuSans-65" d="M 3597 1894 
L 3597 1613 
L 953 1613 
Q 991 1019 1311 708 
Q 1631 397 2203 397 
Q 2534 397 2845 478 
Q 3156 559 3463 722 
L 3463 178 
Q 3153 47 2828 -22 
Q 2503 -91 2169 -91 
Q 1331 -91 842 396 
Q 353 884 353 1716 
Q 353 2575 817 3079 
Q 1281 3584 2069 3584 
Q 2775 3584 3186 3129 
Q 3597 2675 3597 1894 
z
M 3022 2063 
Q 3016 2534 2758 2815 
Q 2500 3097 2075 3097 
Q 1594 3097 1305 2825 
Q 1016 2553 972 2059 
L 3022 2063 
z
" transform="scale(0.015625)"/>
        <path id="DejaVuSans-6d" d="M 3328 2828 
Q 3544 3216 3844 3400 
Q 4144 3584 4550 3584 
Q 5097 3584 5394 3201 
Q 5691 2819 5691 2113 
L 5691 0 
L 5113 0 
L 5113 2094 
Q 5113 2597 4934 2840 
Q 4756 3084 4391 3084 
Q 3944 3084 3684 2787 
Q 3425 2491 3425 1978 
L 3425 0 
L 2847 0 
L 2847 2094 
Q 2847 2600 2669 2842 
Q 2491 3084 2119 3084 
Q 1678 3084 1418 2786 
Q 1159 2488 1159 1978 
L 1159 0 
L 581 0 
L 581 3500 
L 1159 3500 
L 1159 2956 
Q 1356 3278 1631 3431 
Q 1906 3584 2284 3584 
Q 2666 3584 2933 3390 
Q 3200 3197 3328 2828 
z
" transform="scale(0.015625)"/>
       </defs>
       <use xlink:href="#DejaVuSans-53"/>
       <use xlink:href="#DejaVuSans-65" x="63.476562"/>
       <use xlink:href="#DejaVuSans-6d" x="125"/>
       <use xlink:href="#DejaVuSans-69" x="222.412109"/>
       <use xlink:href="#DejaVuSans-46" x="250.195312"/>
       <use xlink:href="#DejaVuSans-69" x="300.464844"/>
       <use xlink:href="#DejaVuSans-6e" x="328.248047"/>
       <use xlink:href="#DejaVuSans-61" x="391.626953"/>
       <use xlink:href="#DejaVuSans-6c" x="452.90625"/>
      </g>
     </g>
    </g>
    <g id="ytick_3">
     <g id="line2d_10">
      <g>
       <use xlink:href="#ma97ac2d4b5" x="95.06" y="146.833333" style="stroke: #000000; stroke-width: 0.8"/>
      </g>
     </g>
     <g id="text_11">
      <!-- Qualification -->
      <g transform="translate(25.086562 150.632552) scale(0.1 -0.1)">
       <defs>
        <path id="DejaVuSans-51" d="M 2522 4238 
Q 1834 4238 1429 3725 
Q 1025 3213 1025 2328 
Q 1025 1447 1429 934 
Q 1834 422 2522 422 
Q 3209 422 3611 934 
Q 4013 1447 4013 2328 
Q 4013 3213 3611 3725 
Q 3209 4238 2522 4238 
z
M 3406 84 
L 4238 -825 
L 3475 -825 
L 2784 -78 
Q 2681 -84 2626 -87 
Q 2572 -91 2522 -91 
Q 1538 -91 948 567 
Q 359 1225 359 2328 
Q 359 3434 948 4092 
Q 1538 4750 2522 4750 
Q 3503 4750 4090 4092 
Q 4678 3434 4678 2328 
Q 4678 1516 4351 937 
Q 4025 359 3406 84 
z
" transform="scale(0.015625)"/>
        <path id="DejaVuSans-75" d="M 544 1381 
L 544 3500 
L 1119 3500 
L 1119 1403 
Q 1119 906 1312 657 
Q 1506 409 1894 409 
Q 2359 409 2629 706 
Q 2900 1003 2900 1516 
L 2900 3500 
L 3475 3500 
L 3475 0 
L 2900 0 
L 2900 538 
Q 2691 219 2414 64 
Q 2138 -91 1772 -91 
Q 1169 -91 856 284 
Q 544 659 544 1381 
z
M 1991 3584 
L 1991 3584 
z
" transform="scale(0.015625)"/>
        <path id="DejaVuSans-66" d="M 2375 4863 
L 2375 4384 
L 1825 4384 
Q 1516 4384 1395 4259 
Q 1275 4134 1275 3809 
L 1275 3500 
L 2222 3500 
L 2222 3053 
L 1275 3053 
L 1275 0 
L 697 0 
L 697 3053 
L 147 3053 
L 147 3500 
L 697 3500 
L 697 3744 
Q 697 4328 969 4595 
Q 1241 4863 1831 4863 
L 2375 4863 
z
" transform="scale(0.015625)"/>
        <path id="DejaVuSans-63" d="M 3122 3366 
L 3122 2828 
Q 2878 2963 2633 3030 
Q 2388 3097 2138 3097 
Q 1578 3097 1268 2742 
Q 959 2388 959 1747 
Q 959 1106 1268 751 
Q 1578 397 2138 397 
Q 2388 397 2633 464 
Q 2878 531 3122 666 
L 3122 134 
Q 2881 22 2623 -34 
Q 2366 -91 2075 -91 
Q 1284 -91 818 406 
Q 353 903 353 1747 
Q 353 2603 823 3093 
Q 1294 3584 2113 3584 
Q 2378 3584 2631 3529 
Q 2884 3475 3122 3366 
z
" transform="scale(0.015625)"/>
       </defs>
       <use xlink:href="#DejaVuSans-51"/>
       <use xlink:href="#DejaVuSans-75" x="78.710938"/>
       <use xlink:href="#DejaVuSans-61" x="142.089844"/>
       <use xlink:href="#DejaVuSans-6c" x="203.369141"/>
       <use xlink:href="#DejaVuSans-69" x="231.152344"/>
       <use xlink:href="#DejaVuSans-66" x="258.935547"/>
       <use xlink:href="#DejaVuSans-69" x="294.140625"/>
       <use xlink:href="#DejaVuSans-63" x="321.923828"/>
       <use xlink:href="#DejaVuSans-61" x="376.904297"/>
       <use xlink:href="#DejaVuSans-74" x="438.183594"/>
       <use xlink:href="#DejaVuSans-69" x="477.392578"/>
       <use xlink:href="#DejaVuSans-6f" x="505.175781"/>
       <use xlink:href="#DejaVuSans-6e" x="566.357422"/>
      </g>
     </g>
    </g>
    <g id="text_12">
     <!-- round -->
     <g transform="translate(19.006875 106.934063) rotate(-90) scale(0.1 -0.1)">
      <defs>
       <path id="DejaVuSans-72" d="M 2631 2963 
Q 2534 3019 2420 3045 
Q 2306 3072 2169 3072 
Q 1681 3072 1420 2755 
Q 1159 2438 1159 1844 
L 1159 0 
L 581 0 
L 581 3500 
L 1159 3500 
L 1159 2956 
Q 1341 3275 1631 3429 
Q 1922 3584 2338 3584 
Q 2397 3584 2469 3576 
Q 2541 3569 2628 3553 
L 2631 2963 
z
" transform="scale(0.015625)"/>
       <path id="DejaVuSans-64" d="M 2906 2969 
L 2906 4863 
L 3481 4863 
L 3481 0 
L 2906 0 
L 2906 525 
Q 2725 213 2448 61 
Q 2172 -91 1784 -91 
Q 1150 -91 751 415 
Q 353 922 353 1747 
Q 353 2572 751 3078 
Q 1150 3584 1784 3584 
Q 2172 3584 2448 3432 
Q 2725 3281 2906 2969 
z
M 947 1747 
Q 947 1113 1208 752 
Q 1469 391 1925 391 
Q 2381 391 2643 752 
Q 2906 1113 2906 1747 
Q 2906 2381 2643 2742 
Q 2381 3103 1925 3103 
Q 1469 3103 1208 2742 
Q 947 2381 947 1747 
z
" transform="scale(0.015625)"/>
      </defs>
      <use xlink:href="#DejaVuSans-72"/>
      <use xlink:href="#DejaVuSans-6f" x="38.863281"/>
      <use xlink:href="#DejaVuSans-75" x="100.044922"/>
      <use xlink:href="#DejaVuSans-6e" x="163.423828"/>
      <use xlink:href="#DejaVuSans-64" x="226.802734"/>
     </g>
    </g>
   </g>
   <g id="patch_3">
    <path d="M 95.06 174.04 
L 95.06 10.8 
" style="fill: none; stroke: #000000; stroke-width: 0.8; stroke-linejoin: miter; stroke-linecap: square"/>
   </g>
   <g id="patch_4">
    <path d="M 565.2 174.04 
L 565.2 10.8 
" style="fill: none; stroke: #000000; stroke-width: 0.8; stroke-linejoin: miter; stroke-linecap: square"/>
   </g>
   <g id="patch_5">
    <path d="M 95.06 174.04 
L 565.2 174.04 
" style="fill: none; stroke: #000000; stroke-width: 0.8; stroke-linejoin: miter; stroke-linecap: square"/>
   </g>
   <g id="patch_6">
    <path d="M 95.06 10.8 
L 565.2 10.8 
" style="fill: none; stroke: #000000; stroke-width: 0.8; stroke-linejoin: miter; stroke-linecap: square"/>
   </g>
   <g id="PathCollection_3">
    <defs>
     <path id="C0_0_62e1ecff0b" d="M 0 2.5 
C 0.663008 2.5 1.29895 2.236584 1.767767 1.767767 
C 2.236584 1.29895 2.5 0.663008 2.5 -0 
C 2.5 -0.663008 2.236584 -1.29895 1.767767 -1.767767 
C 1.29895 -2.236584 0.663008 -2.5 0 -2.5 
C -0.663008 -2.5 -1.29895 -2.236584 -1.767767 -1.767767 
C -2.236584 -1.29895 -2.5 -0.663008 -2.5 0 
C -2.5 0.663008 -2.236584 1.29895 -1.767767 1.767767 
C -1.29895 2.236584 -0.663008 2.5 0 2.5 
z
"/>
    </defs>
    <g clip-path="url(#p0b1174e5e8)">
     <use xlink:href="#C0_0_62e1ecff0b" x="283.673478" y="32.667741" style="fill: #1f77b4; fill-opacity: 0.7"/>
    </g>
    <g clip-path="url(#p0b1174e5e8)">
     <use xlink:href="#C0_0_62e1ecff0b" x="319.511366" y="42.279939" style="fill: #ff7f0e; fill-opacity: 0.7"/>
    </g>
    <g clip-path="url(#p0b1174e5e8)">
     <use xlink:href="#C0_0_62e1ecff0b" x="334.775652" y="41.828386" style="fill: #1f77b4; fill-opacity: 0.7"/>
    </g>
    <g clip-path="url(#p0b1174e5e8)">
     <use xlink:href="#C0_0_62e1ecff0b" x="283.673478" y="38.659808" style="fill: #ff7f0e; fill-opacity: 0.7"/>
    </g>
    <g clip-path="url(#p0b1174e5e8)">
     <use xlink:href="#C0_0_62e1ecff0b" x="194.217664" y="34.648465" style="fill: #1f77b4; fill-opacity: 0.7"/>
    </g>
    <g clip-path="url(#p0b1174e5e8)">
     <use xlink:href="#C0_0_62e1ecff0b" x="208.015714" y="34.212314" style="fill: #ff7f0e; fill-opacity: 0.7"/>
    </g>
    <g clip-path="url(#p0b1174e5e8)">
     <use xlink:href="#C0_0_62e1ecff0b" x="261.739907" y="36.333731" style="fill: #1f77b4; fill-opacity: 0.7"/>
    </g>
    <g clip-path="url(#p0b1174e5e8)">
     <use xlink:href="#C0_0_62e1ecff0b" x="266.94913" y="39.535358" style="fill: #ff7f0e; fill-opacity: 0.7"/>
    </g>
    <g clip-path="url(#p0b1174e5e8)">
     <use xlink:href="#C0_0_62e1ecff0b" x="322.56731" y="39.516578" style="fill: #1f77b4; fill-opacity: 0.7"/>
    </g>
    <g clip-path="url(#p0b1174e5e8)">
     <use xlink:href="#C0_0_62e1ecff0b" x="343.403292" y="42.336669" style="fill: #ff7f0e; fill-opacity: 0.7"/>
    </g>
    <g clip-path="url(#p0b1174e5e8)">
     <use xlink:href="#C0_0_62e1ecff0b" x="273.220761" y="42.924666" style="fill: #1f77b4; fill-opacity: 0.7"/>
    </g>
    <g clip-path="url(#p0b1174e5e8)">
     <use xlink:href="#C0_0_62e1ecff0b" x="369.001783" y="41.071054" style="fill: #ff7f0e; fill-opacity: 0.7"/>
    </g>
    <g clip-path="url(#p0b1174e5e8)">
     <use xlink:href="#C0_0_62e1ecff0b" x="283.673478" y="32.688508" style="fill: #1f77b4; fill-opacity: 0.7"/>
    </g>
    <g clip-path="url(#p0b1174e5e8)">
     <use xlink:href="#C0_0_62e1ecff0b" x="314.644493" y="38.682432" style="fill: #ff7f0e; fill-opacity: 0.7"/>
    </g>
    <g clip-path="url(#p0b1174e5e8)">
     <use xlink:href="#C0_0_62e1ecff0b" x="232.993636" y="34.763195" style="fill: #1f77b4; fill-opacity: 0.7"/>
    </g>
    <g clip-path="url(#p0b1174e5e8)">
     <use xlink:href="#C0_0_62e1ecff0b" x="300.397826" y="39.055842" style="fill: #ff7f0e; fill-opacity: 0.7"/>
    </g>
    <g clip-path="url(#p0b1174e5e8)">
     <use xlink:href="#C0_0_62e1ecff0b" x="224.441413" y="35.785684" style="fill: #1f77b4; fill-opacity: 0.7"/>
    </g>
    <g clip-path="url(#p0b1174e5e8)">
     <use xlink:href="#C0_0_62e1ecff0b" x="235.889627" y="33.448924" style="fill: #ff7f0e; fill-opacity: 0.7"/>
    </g>
    <g clip-path="url(#p0b1174e5e8)">
     <use xlink:href="#C0_0_62e1ecff0b" x="271.727516" y="38.273299" style="fill: #1f77b4; fill-opacity: 0.7"/>
    </g>
    <g clip-path="url(#p0b1174e5e8)">
     <use xlink:href="#C0_0_62e1ecff0b" x="263.76354" y="33.596042" style="fill: #ff7f0e; fill-opacity: 0.7"/>
    </g>
    <g clip-path="url(#p0b1174e5e8)">
     <use xlink:href="#C0_0_62e1ecff0b" x="256.368421" y="42.696114" style="fill: #1f77b4; fill-opacity: 0.7"/>
    </g>
    <g clip-path="url(#p0b1174e5e8)">
     <use xlink:href="#C0_0_62e1ecff0b" x="276.705" y="37.884398" style="fill: #ff7f0e; fill-opacity: 0.7"/>
    </g>
    <g clip-path="url(#p0b1174e5e8)">
     <use xlink:href="#C0_0_62e1ecff0b" x="267.745528" y="35.629802" style="fill: #1f77b4; fill-opacity: 0.7"/>
    </g>
    <g clip-path="url(#p0b1174e5e8)">
     <use xlink:href="#C0_0_62e1ecff0b" x="331.457329" y="37.2164" style="fill: #ff7f0e; fill-opacity: 0.7"/>
    </g>
    <g clip-path="url(#p0b1174e5e8)">
     <use xlink:href="#C0_0_62e1ecff0b" x="116.43" y="40.530168" style="fill: #1f77b4; fill-opacity: 0.7"/>
    </g>
    <g clip-path="url(#p0b1174e5e8)">
     <use xlink:href="#C0_0_62e1ecff0b" x="339.421304" y="34.375987" style="fill: #ff7f0e; fill-opacity: 0.7"/>
    </g>
    <g clip-path="url(#p0b1174e5e8)">
     <use xlink:href="#C0_0_62e1ecff0b" x="330.13" y="36.792638" style="fill: #1f77b4; fill-opacity: 0.7"/>
    </g>
    <g clip-path="url(#p0b1174e5e8)">
     <use xlink:href="#C0_0_62e1ecff0b" x="311.547391" y="38.764008" style="fill: #ff7f0e; fill-opacity: 0.7"/>
    </g>
   </g>
   <g id="PathCollection_4">
    <defs>
     <path id="C1_0_60d8537c50" d="M 0 2.5 
C 0.663008 2.5 1.29895 2.236584 1.767767 1.767767 
C 2.236584 1.29895 2.5 0.663008 2.5 -0 
C 2.5 -0.663008 2.236584 -1.29895 1.767767 -1.767767 
C 1.29895 -2.236584 0.663008 -2.5 0 -2.5 
C -0.663008 -2.5 -1.29895 -2.236584 -1.767767 -1.767767 
C -2.236584 -1.29895 -2.5 -0.663008 -2.5 0 
C -2.5 0.663008 -2.236584 1.29895 -1.767767 1.767767 
C -1.29895 2.236584 -0.663008 2.5 0 2.5 
z
"/>
    </defs>
    <g clip-path="url(#p0b1174e5e8)">
     <use xlink:href="#C1_0_60d8537c50" x="423.043043" y="93.064787" style="fill: #1f77b4; fill-opacity: 0.7"/>
    </g>
    <g clip-path="url(#p0b1174e5e8)">
     <use xlink:href="#C1_0_60d8537c50" x="474.808882" y="95.720183" style="fill: #ff7f0e; fill-opacity: 0.7"/>
    </g>
    <g clip-path="url(#p0b1174e5e8)">
     <use xlink:href="#C1_0_60d8537c50" x="436.98" y="91.615799" style="fill: #1f77b4; fill-opacity: 0.7"/>
    </g>
    <g clip-path="url(#p0b1174e5e8)">
     <use xlink:href="#C1_0_60d8537c50" x="423.796392" y="95.053322" style="fill: #ff7f0e; fill-opacity: 0.7"/>
    </g>
    <g clip-path="url(#p0b1174e5e8)">
     <use xlink:href="#C1_0_60d8537c50" x="326.456694" y="92.387466" style="fill: #1f77b4; fill-opacity: 0.7"/>
    </g>
    <g clip-path="url(#p0b1174e5e8)">
     <use xlink:href="#C1_0_60d8537c50" x="543.83" y="93.690615" style="fill: #ff7f0e; fill-opacity: 0.7"/>
    </g>
    <g clip-path="url(#p0b1174e5e8)">
     <use xlink:href="#C1_0_60d8537c50" x="341.249102" y="95.615735" style="fill: #1f77b4; fill-opacity: 0.7"/>
    </g>
    <g clip-path="url(#p0b1174e5e8)">
     <use xlink:href="#C1_0_60d8537c50" x="423.043043" y="92.65561" style="fill: #ff7f0e; fill-opacity: 0.7"/>
    </g>
    <g clip-path="url(#p0b1174e5e8)">
     <use xlink:href="#C1_0_60d8537c50" x="419.801891" y="96.208897" style="fill: #1f77b4; fill-opacity: 0.7"/>
    </g>
    <g clip-path="url(#p0b1174e5e8)">
     <use xlink:href="#C1_0_60d8537c50" x="391.187143" y="95.343509" style="fill: #ff7f0e; fill-opacity: 0.7"/>
    </g>
    <g clip-path="url(#p0b1174e5e8)">
     <use xlink:href="#C1_0_60d8537c50" x="471.822391" y="92.339635" style="fill: #1f77b4; fill-opacity: 0.7"/>
    </g>
    <g clip-path="url(#p0b1174e5e8)">
     <use xlink:href="#C1_0_60d8537c50" x="437.264428" y="94.014082" style="fill: #ff7f0e; fill-opacity: 0.7"/>
    </g>
    <g clip-path="url(#p0b1174e5e8)">
     <use xlink:href="#C1_0_60d8537c50" x="438.528551" y="93.400219" style="fill: #1f77b4; fill-opacity: 0.7"/>
    </g>
    <g clip-path="url(#p0b1174e5e8)">
     <use xlink:href="#C1_0_60d8537c50" x="410.654638" y="93.527404" style="fill: #ff7f0e; fill-opacity: 0.7"/>
    </g>
    <g clip-path="url(#p0b1174e5e8)">
     <use xlink:href="#C1_0_60d8537c50" x="395.16913" y="92.456828" style="fill: #1f77b4; fill-opacity: 0.7"/>
    </g>
    <g clip-path="url(#p0b1174e5e8)">
     <use xlink:href="#C1_0_60d8537c50" x="495.515217" y="94.939163" style="fill: #ff7f0e; fill-opacity: 0.7"/>
    </g>
    <g clip-path="url(#p0b1174e5e8)">
     <use xlink:href="#C1_0_60d8537c50" x="388.200652" y="95.156686" style="fill: #1f77b4; fill-opacity: 0.7"/>
    </g>
    <g clip-path="url(#p0b1174e5e8)">
     <use xlink:href="#C1_0_60d8537c50" x="392.893709" y="96.324813" style="fill: #ff7f0e; fill-opacity: 0.7"/>
    </g>
    <g clip-path="url(#p0b1174e5e8)">
     <use xlink:href="#C1_0_60d8537c50" x="363.31323" y="92.780456" style="fill: #1f77b4; fill-opacity: 0.7"/>
    </g>
    <g clip-path="url(#p0b1174e5e8)">
     <use xlink:href="#C1_0_60d8537c50" x="427.025031" y="96.441746" style="fill: #ff7f0e; fill-opacity: 0.7"/>
    </g>
    <g clip-path="url(#p0b1174e5e8)">
     <use xlink:href="#C1_0_60d8537c50" x="416.785634" y="88.625527" style="fill: #1f77b4; fill-opacity: 0.7"/>
    </g>
    <g clip-path="url(#p0b1174e5e8)">
     <use xlink:href="#C1_0_60d8537c50" x="360.326739" y="88.814457" style="fill: #ff7f0e; fill-opacity: 0.7"/>
    </g>
    <g clip-path="url(#p0b1174e5e8)">
     <use xlink:href="#C1_0_60d8537c50" x="375.259193" y="93.596278" style="fill: #1f77b4; fill-opacity: 0.7"/>
    </g>
    <g clip-path="url(#p0b1174e5e8)">
     <use xlink:href="#C1_0_60d8537c50" x="303.583416" y="92.582223" style="fill: #ff7f0e; fill-opacity: 0.7"/>
    </g>
    <g clip-path="url(#p0b1174e5e8)">
     <use xlink:href="#C1_0_60d8537c50" x="395.16913" y="93.128473" style="fill: #1f77b4; fill-opacity: 0.7"/>
    </g>
    <g clip-path="url(#p0b1174e5e8)">
     <use xlink:href="#C1_0_60d8537c50" x="339.421304" y="88.126527" style="fill: #ff7f0e; fill-opacity: 0.7"/>
    </g>
    <g clip-path="url(#p0b1174e5e8)">
     <use xlink:href="#C1_0_60d8537c50" x="406.046755" y="93.412882" style="fill: #1f77b4; fill-opacity: 0.7"/>
    </g>
    <g clip-path="url(#p0b1174e5e8)">
     <use xlink:href="#C1_0_60d8537c50" x="430.011522" y="93.134111" style="fill: #ff7f0e; fill-opacity: 0.7"/>
    </g>
   </g>
   <g id="PathCollection_5">
    <defs>
     <path id="C2_0_2071a25fe5" d="M 0 2.5 
C 0.663008 2.5 1.29895 2.236584 1.767767 1.767767 
C 2.236584 1.29895 2.5 0.663008 2.5 -0 
C 2.5 -0.663008 2.236584 -1.29895 1.767767 -1.767767 
C 1.29895 -2.236584 0.663008 -2.5 0 -2.5 
C -0.663008 -2.5 -1.29895 -2.236584 -1.767767 -1.767767 
C -2.236584 -1.29895 -2.5 -0.663008 -2.5 0 
C -2.5 0.663008 -2.236584 1.29895 -1.767767 1.767767 
C -1.29895 2.236584 -0.663008 2.5 0 2.5 
z
"/>
    </defs>
    <g clip-path="url(#p0b1174e5e8)">
     <use xlink:href="#C2_0_2071a25fe5" x="420.653851" y="151.402947" style="fill: #1f77b4; fill-opacity: 0.7"/>
    </g>
    <g clip-path="url(#p0b1174e5e8)">
     <use xlink:href="#C2_0_2071a25fe5" x="430.210621" y="147.084354" style="fill: #ff7f0e; fill-opacity: 0.7"/>
    </g>
    <g clip-path="url(#p0b1174e5e8)">
     <use xlink:href="#C2_0_2071a25fe5" x="462.066522" y="150.817338" style="fill: #1f77b4; fill-opacity: 0.7"/>
    </g>
    <g clip-path="url(#p0b1174e5e8)">
     <use xlink:href="#C2_0_2071a25fe5" x="513.294254" y="146.384836" style="fill: #ff7f0e; fill-opacity: 0.7"/>
    </g>
    <g clip-path="url(#p0b1174e5e8)">
     <use xlink:href="#C2_0_2071a25fe5" x="469.1617" y="143.975581" style="fill: #1f77b4; fill-opacity: 0.7"/>
    </g>
    <g clip-path="url(#p0b1174e5e8)">
     <use xlink:href="#C2_0_2071a25fe5" x="513.035963" y="151.851727" style="fill: #ff7f0e; fill-opacity: 0.7"/>
    </g>
    <g clip-path="url(#p0b1174e5e8)">
     <use xlink:href="#C2_0_2071a25fe5" x="515.072651" y="146.162273" style="fill: #1f77b4; fill-opacity: 0.7"/>
    </g>
    <g clip-path="url(#p0b1174e5e8)">
     <use xlink:href="#C2_0_2071a25fe5" x="470.986174" y="150.221016" style="fill: #ff7f0e; fill-opacity: 0.7"/>
    </g>
    <g clip-path="url(#p0b1174e5e8)">
     <use xlink:href="#C2_0_2071a25fe5" x="493.488024" y="146.599674" style="fill: #1f77b4; fill-opacity: 0.7"/>
    </g>
    <g clip-path="url(#p0b1174e5e8)">
     <use xlink:href="#C2_0_2071a25fe5" x="525.778323" y="146.681305" style="fill: #ff7f0e; fill-opacity: 0.7"/>
    </g>
    <g clip-path="url(#p0b1174e5e8)">
     <use xlink:href="#C2_0_2071a25fe5" x="501.09" y="148.888091" style="fill: #1f77b4; fill-opacity: 0.7"/>
    </g>
    <g clip-path="url(#p0b1174e5e8)">
     <use xlink:href="#C2_0_2071a25fe5" x="484.365652" y="145.123183" style="fill: #ff7f0e; fill-opacity: 0.7"/>
    </g>
    <g clip-path="url(#p0b1174e5e8)">
     <use xlink:href="#C2_0_2071a25fe5" x="462.066522" y="146.853874" style="fill: #1f77b4; fill-opacity: 0.7"/>
    </g>
    <g clip-path="url(#p0b1174e5e8)">
     <use xlink:href="#C2_0_2071a25fe5" x="543.83" y="146.833778" style="fill: #ff7f0e; fill-opacity: 0.7"/>
    </g>
    <g clip-path="url(#p0b1174e5e8)">
     <use xlink:href="#C2_0_2071a25fe5" x="496.528814" y="147.720078" style="fill: #1f77b4; fill-opacity: 0.7"/>
    </g>
    <g clip-path="url(#p0b1174e5e8)">
     <use xlink:href="#C2_0_2071a25fe5" x="493.285304" y="146.427909" style="fill: #ff7f0e; fill-opacity: 0.7"/>
    </g>
    <g clip-path="url(#p0b1174e5e8)">
     <use xlink:href="#C2_0_2071a25fe5" x="498.302609" y="147.023881" style="fill: #1f77b4; fill-opacity: 0.7"/>
    </g>
    <g clip-path="url(#p0b1174e5e8)">
     <use xlink:href="#C2_0_2071a25fe5" x="481.635146" y="143.620626" style="fill: #ff7f0e; fill-opacity: 0.7"/>
    </g>
    <g clip-path="url(#p0b1174e5e8)">
     <use xlink:href="#C2_0_2071a25fe5" x="541.706273" y="147.722719" style="fill: #1f77b4; fill-opacity: 0.7"/>
    </g>
    <g clip-path="url(#p0b1174e5e8)">
     <use xlink:href="#C2_0_2071a25fe5" x="481.180062" y="147.121572" style="fill: #ff7f0e; fill-opacity: 0.7"/>
    </g>
    <g clip-path="url(#p0b1174e5e8)">
     <use xlink:href="#C2_0_2071a25fe5" x="454.330089" y="147.119728" style="fill: #1f77b4; fill-opacity: 0.7"/>
    </g>
    <g clip-path="url(#p0b1174e5e8)">
     <use xlink:href="#C2_0_2071a25fe5" x="487.153043" y="148.080762" style="fill: #ff7f0e; fill-opacity: 0.7"/>
    </g>
    <g clip-path="url(#p0b1174e5e8)">
     <use xlink:href="#C2_0_2071a25fe5" x="528.963913" y="145.744556" style="fill: #1f77b4; fill-opacity: 0.7"/>
    </g>
    <g clip-path="url(#p0b1174e5e8)">
     <use xlink:href="#C2_0_2071a25fe5" x="484.365652" y="144.926867" style="fill: #ff7f0e; fill-opacity: 0.7"/>
    </g>
    <g clip-path="url(#p0b1174e5e8)">
     <use xlink:href="#C2_0_2071a25fe5" x="194.476957" y="146.737554" style="fill: #1f77b4; fill-opacity: 0.7"/>
    </g>
    <g clip-path="url(#p0b1174e5e8)">
     <use xlink:href="#C2_0_2071a25fe5" x="350.57087" y="149.61146" style="fill: #ff7f0e; fill-opacity: 0.7"/>
    </g>
    <g clip-path="url(#p0b1174e5e8)">
     <use xlink:href="#C2_0_2071a25fe5" x="456.362093" y="149.47772" style="fill: #1f77b4; fill-opacity: 0.7"/>
    </g>
    <g clip-path="url(#p0b1174e5e8)">
     <use xlink:href="#C2_0_2071a25fe5" x="520.261813" y="145.120095" style="fill: #ff7f0e; fill-opacity: 0.7"/>
    </g>
   </g>
   <g id="legend_1">
    <g id="patch_7">
     <path d="M 448.80625 62.834375 
L 558.2 62.834375 
Q 560.2 62.834375 560.2 60.834375 
L 560.2 17.8 
Q 560.2 15.8 558.2 15.8 
L 448.80625 15.8 
Q 446.80625 15.8 446.80625 17.8 
L 446.80625 60.834375 
Q 446.80625 62.834375 448.80625 62.834375 
z
" style="fill: #ffffff; opacity: 0.8; stroke: #cccccc; stroke-linejoin: miter"/>
    </g>
    <g id="text_13">
     <!-- competitionCategory -->
     <g transform="translate(450.80625 27.398438) scale(0.1 -0.1)">
      <defs>
       <path id="DejaVuSans-43" d="M 4122 4306 
L 4122 3641 
Q 3803 3938 3442 4084 
Q 3081 4231 2675 4231 
Q 1875 4231 1450 3742 
Q 1025 3253 1025 2328 
Q 1025 1406 1450 917 
Q 1875 428 2675 428 
Q 3081 428 3442 575 
Q 3803 722 4122 1019 
L 4122 359 
Q 3791 134 3420 21 
Q 3050 -91 2638 -91 
Q 1578 -91 968 557 
Q 359 1206 359 2328 
Q 359 3453 968 4101 
Q 1578 4750 2638 4750 
Q 3056 4750 3426 4639 
Q 3797 4528 4122 4306 
z
" transform="scale(0.015625)"/>
       <path id="DejaVuSans-67" d="M 2906 1791 
Q 2906 2416 2648 2759 
Q 2391 3103 1925 3103 
Q 1463 3103 1205 2759 
Q 947 2416 947 1791 
Q 947 1169 1205 825 
Q 1463 481 1925 481 
Q 2391 481 2648 825 
Q 2906 1169 2906 1791 
z
M 3481 434 
Q 3481 -459 3084 -895 
Q 2688 -1331 1869 -1331 
Q 1566 -1331 1297 -1286 
Q 1028 -1241 775 -1147 
L 775 -588 
Q 1028 -725 1275 -790 
Q 1522 -856 1778 -856 
Q 2344 -856 2625 -561 
Q 2906 -266 2906 331 
L 2906 616 
Q 2728 306 2450 153 
Q 2172 0 1784 0 
Q 1141 0 747 490 
Q 353 981 353 1791 
Q 353 2603 747 3093 
Q 1141 3584 1784 3584 
Q 2172 3584 2450 3431 
Q 2728 3278 2906 2969 
L 2906 3500 
L 3481 3500 
L 3481 434 
z
" transform="scale(0.015625)"/>
       <path id="DejaVuSans-79" d="M 2059 -325 
Q 1816 -950 1584 -1140 
Q 1353 -1331 966 -1331 
L 506 -1331 
L 506 -850 
L 844 -850 
Q 1081 -850 1212 -737 
Q 1344 -625 1503 -206 
L 1606 56 
L 191 3500 
L 800 3500 
L 1894 763 
L 2988 3500 
L 3597 3500 
L 2059 -325 
z
" transform="scale(0.015625)"/>
      </defs>
      <use xlink:href="#DejaVuSans-63"/>
      <use xlink:href="#DejaVuSans-6f" x="54.980469"/>
      <use xlink:href="#DejaVuSans-6d" x="116.162109"/>
      <use xlink:href="#DejaVuSans-70" x="213.574219"/>
      <use xlink:href="#DejaVuSans-65" x="277.050781"/>
      <use xlink:href="#DejaVuSans-74" x="338.574219"/>
      <use xlink:href="#DejaVuSans-69" x="377.783203"/>
      <use xlink:href="#DejaVuSans-74" x="405.566406"/>
      <use xlink:href="#DejaVuSans-69" x="444.775391"/>
      <use xlink:href="#DejaVuSans-6f" x="472.558594"/>
      <use xlink:href="#DejaVuSans-6e" x="533.740234"/>
      <use xlink:href="#DejaVuSans-43" x="597.119141"/>
      <use xlink:href="#DejaVuSans-61" x="666.943359"/>
      <use xlink:href="#DejaVuSans-74" x="728.222656"/>
      <use xlink:href="#DejaVuSans-65" x="767.431641"/>
      <use xlink:href="#DejaVuSans-67" x="828.955078"/>
      <use xlink:href="#DejaVuSans-6f" x="892.431641"/>
      <use xlink:href="#DejaVuSans-72" x="953.613281"/>
      <use xlink:href="#DejaVuSans-79" x="994.726562"/>
     </g>
    </g>
    <g id="PathCollection_6">
     <defs>
      <path id="ma19d31b265" d="M 0 3 
C 0.795609 3 1.55874 2.683901 2.12132 2.12132 
C 2.683901 1.55874 3 0.795609 3 0 
C 3 -0.795609 2.683901 -1.55874 2.12132 -2.12132 
C 1.55874 -2.683901 0.795609 -3 0 -3 
C -0.795609 -3 -1.55874 -2.683901 -2.12132 -2.12132 
C -2.683901 -1.55874 -3 -0.795609 -3 0 
C -3 0.795609 -2.683901 1.55874 -2.12132 2.12132 
C -1.55874 2.683901 -0.795609 3 0 3 
z
" style="stroke: #1f77b4"/>
     </defs>
     <g>
      <use xlink:href="#ma19d31b265" x="480.678125" y="39.451563" style="fill: #1f77b4; stroke: #1f77b4"/>
     </g>
    </g>
    <g id="text_14">
     <!-- Men -->
     <g transform="translate(498.678125 42.076563) scale(0.1 -0.1)">
      <defs>
       <path id="DejaVuSans-4d" d="M 628 4666 
L 1569 4666 
L 2759 1491 
L 3956 4666 
L 4897 4666 
L 4897 0 
L 4281 0 
L 4281 4097 
L 3078 897 
L 2444 897 
L 1241 4097 
L 1241 0 
L 628 0 
L 628 4666 
z
" transform="scale(0.015625)"/>
      </defs>
      <use xlink:href="#DejaVuSans-4d"/>
      <use xlink:href="#DejaVuSans-65" x="86.279297"/>
      <use xlink:href="#DejaVuSans-6e" x="147.802734"/>
     </g>
    </g>
    <g id="PathCollection_7">
     <defs>
      <path id="md90b7f60eb" d="M 0 3 
C 0.795609 3 1.55874 2.683901 2.12132 2.12132 
C 2.683901 1.55874 3 0.795609 3 0 
C 3 -0.795609 2.683901 -1.55874 2.12132 -2.12132 
C 1.55874 -2.683901 0.795609 -3 0 -3 
C -0.795609 -3 -1.55874 -2.683901 -2.12132 -2.12132 
C -2.683901 -1.55874 -3 -0.795609 -3 0 
C -3 0.795609 -2.683901 1.55874 -2.12132 2.12132 
C -1.55874 2.683901 -0.795609 3 0 3 
z
" style="stroke: #ff7f0e"/>
     </defs>
     <g>
      <use xlink:href="#md90b7f60eb" x="480.678125" y="54.129688" style="fill: #ff7f0e; stroke: #ff7f0e"/>
     </g>
    </g>
    <g id="text_15">
     <!-- Women -->
     <g transform="translate(498.678125 56.754688) scale(0.1 -0.1)">
      <defs>
       <path id="DejaVuSans-57" d="M 213 4666 
L 850 4666 
L 1831 722 
L 2809 4666 
L 3519 4666 
L 4500 722 
L 5478 4666 
L 6119 4666 
L 4947 0 
L 4153 0 
L 3169 4050 
L 2175 0 
L 1381 0 
L 213 4666 
z
" transform="scale(0.015625)"/>
      </defs>
      <use xlink:href="#DejaVuSans-57"/>
      <use xlink:href="#DejaVuSans-6f" x="93.001953"/>
      <use xlink:href="#DejaVuSans-6d" x="154.183594"/>
      <use xlink:href="#DejaVuSans-65" x="251.595703"/>
      <use xlink:href="#DejaVuSans-6e" x="313.119141"/>
     </g>
    </g>
   </g>
  </g>
 </g>
 <defs>
  <clipPath id="p0b1174e5e8">
   <rect x="95.06" y="10.8" width="470.14" height="163.24"/>
  </clipPath>
 </defs>
</svg>
