<?xml version="1.0" encoding="utf-8" standalone="no"?>
<!DOCTYPE svg PUBLIC "-//W3C//DTD SVG 1.1//EN"
  "http://www.w3.org/Graphics/SVG/1.1/DTD/svg11.dtd">
<svg xmlns:xlink="http://www.w3.org/1999/xlink" width="360pt" height="360pt" viewBox="0 0 360 360" xmlns="http://www.w3.org/2000/svg" version="1.1">
 <metadata>
  <rdf:RDF xmlns:dc="http://purl.org/dc/elements/1.1/" xmlns:cc="http://creativecommons.org/ns#" xmlns:rdf="http://www.w3.org/1999/02/22-rdf-syntax-ns#">
   <cc:Work>
    <dc:type rdf:resource="http://purl.org/dc/dcmitype/StillImage"/>
    <dc:date>1980-01-01T00:00:00+00:00</dc:date>
    <dc:format>image/svg+xml</dc:format>
    <dc:creator>
     <cc:Agent>
      <dc:title>Matplotlib v3.6.2, https://matplotlib.org/</dc:title>
     </cc:Agent>
    </dc:creator>
   </cc:Work>
  </rdf:RDF>
 </metadata>
 <defs>
  <style type="text/css">*{stroke-linejoin: round; stroke-linecap: butt}</style>
 </defs>
 <g id="figure_1">
  <g id="patch_1">
   <path d="M 0 360 
L 360 360 
L 360 0 
L 0 0 
z
" style="fill: #ffffff"/>
  </g>
  <g id="axes_1">
   <g id="patch_2">
    <path d="M 95.06 318.04 
L 345.696188 318.04 
L 345.696188 10.8 
L 95.06 10.8 
z
" style="fill: #ffffff"/>
   </g>
   <g id="matplotlib.axis_1">
    <g id="xtick_1">
     <g id="line2d_1">
      <defs>
       <path id="md5abdc057a" d="M 0 0 
L 0 3.5 
" style="stroke: #000000; stroke-width: 0.8"/>
      </defs>
      <g>
       <use xlink:href="#md5abdc057a" x="124.517473" y="318.04" style="stroke: #000000; stroke-width: 0.8"/>
      </g>
     </g>
     <g id="text_1">
      <!-- 0.3 -->
      <g transform="translate(116.565911 332.638438) scale(0.1 -0.1)">
       <defs>
        <path id="DejaVuSans-30" d="M 2034 4250 
Q 1547 4250 1301 3770 
Q 1056 3291 1056 2328 
Q 1056 1369 1301 889 
Q 1547 409 2034 409 
Q 2525 409 2770 889 
Q 3016 1369 3016 2328 
Q 3016 3291 2770 3770 
Q 2525 4250 2034 4250 
z
M 2034 4750 
Q 2819 4750 3233 4129 
Q 3647 3509 3647 2328 
Q 3647 1150 3233 529 
Q 2819 -91 2034 -91 
Q 1250 -91 836 529 
Q 422 1150 422 2328 
Q 422 3509 836 4129 
Q 1250 4750 2034 4750 
z
" transform="scale(0.015625)"/>
        <path id="DejaVuSans-2e" d="M 684 794 
L 1344 794 
L 1344 0 
L 684 0 
L 684 794 
z
" transform="scale(0.015625)"/>
        <path id="DejaVuSans-33" d="M 2597 2516 
Q 3050 2419 3304 2112 
Q 3559 1806 3559 1356 
Q 3559 666 3084 287 
Q 2609 -91 1734 -91 
Q 1441 -91 1130 -33 
Q 819 25 488 141 
L 488 750 
Q 750 597 1062 519 
Q 1375 441 1716 441 
Q 2309 441 2620 675 
Q 2931 909 2931 1356 
Q 2931 1769 2642 2001 
Q 2353 2234 1838 2234 
L 1294 2234 
L 1294 2753 
L 1863 2753 
Q 2328 2753 2575 2939 
Q 2822 3125 2822 3475 
Q 2822 3834 2567 4026 
Q 2313 4219 1838 4219 
Q 1578 4219 1281 4162 
Q 984 4106 628 3988 
L 628 4550 
Q 988 4650 1302 4700 
Q 1616 4750 1894 4750 
Q 2613 4750 3031 4423 
Q 3450 4097 3450 3541 
Q 3450 3153 3228 2886 
Q 3006 2619 2597 2516 
z
" transform="scale(0.015625)"/>
       </defs>
       <use xlink:href="#DejaVuSans-30"/>
       <use xlink:href="#DejaVuSans-2e" x="63.623047"/>
       <use xlink:href="#DejaVuSans-33" x="95.410156"/>
      </g>
     </g>
    </g>
    <g id="xtick_2">
     <g id="line2d_2">
      <g>
       <use xlink:href="#md5abdc057a" x="160.647312" y="318.04" style="stroke: #000000; stroke-width: 0.8"/>
      </g>
     </g>
     <g id="text_2">
      <!-- 0.4 -->
      <g transform="translate(152.69575 332.638438) scale(0.1 -0.1)">
       <defs>
        <path id="DejaVuSans-34" d="M 2419 4116 
L 825 1625 
L 2419 1625 
L 2419 4116 
z
M 2253 4666 
L 3047 4666 
L 3047 1625 
L 3713 1625 
L 3713 1100 
L 3047 1100 
L 3047 0 
L 2419 0 
L 2419 1100 
L 313 1100 
L 313 1709 
L 2253 4666 
z
" transform="scale(0.015625)"/>
       </defs>
       <use xlink:href="#DejaVuSans-30"/>
       <use xlink:href="#DejaVuSans-2e" x="63.623047"/>
       <use xlink:href="#DejaVuSans-34" x="95.410156"/>
      </g>
     </g>
    </g>
    <g id="xtick_3">
     <g id="line2d_3">
      <g>
       <use xlink:href="#md5abdc057a" x="196.777151" y="318.04" style="stroke: #000000; stroke-width: 0.8"/>
      </g>
     </g>
     <g id="text_3">
      <!-- 0.5 -->
      <g transform="translate(188.825588 332.638438) scale(0.1 -0.1)">
       <defs>
        <path id="DejaVuSans-35" d="M 691 4666 
L 3169 4666 
L 3169 4134 
L 1269 4134 
L 1269 2991 
Q 1406 3038 1543 3061 
Q 1681 3084 1819 3084 
Q 2600 3084 3056 2656 
Q 3513 2228 3513 1497 
Q 3513 744 3044 326 
Q 2575 -91 1722 -91 
Q 1428 -91 1123 -41 
Q 819 9 494 109 
L 494 744 
Q 775 591 1075 516 
Q 1375 441 1709 441 
Q 2250 441 2565 725 
Q 2881 1009 2881 1497 
Q 2881 1984 2565 2268 
Q 2250 2553 1709 2553 
Q 1456 2553 1204 2497 
Q 953 2441 691 2322 
L 691 4666 
z
" transform="scale(0.015625)"/>
       </defs>
       <use xlink:href="#DejaVuSans-30"/>
       <use xlink:href="#DejaVuSans-2e" x="63.623047"/>
       <use xlink:href="#DejaVuSans-35" x="95.410156"/>
      </g>
     </g>
    </g>
    <g id="xtick_4">
     <g id="line2d_4">
      <g>
       <use xlink:href="#md5abdc057a" x="232.90699" y="318.04" style="stroke: #000000; stroke-width: 0.8"/>
      </g>
     </g>
     <g id="text_4">
      <!-- 0.6 -->
      <g transform="translate(224.955427 332.638438) scale(0.1 -0.1)">
       <defs>
        <path id="DejaVuSans-36" d="M 2113 2584 
Q 1688 2584 1439 2293 
Q 1191 2003 1191 1497 
Q 1191 994 1439 701 
Q 1688 409 2113 409 
Q 2538 409 2786 701 
Q 3034 994 3034 1497 
Q 3034 2003 2786 2293 
Q 2538 2584 2113 2584 
z
M 3366 4563 
L 3366 3988 
Q 3128 4100 2886 4159 
Q 2644 4219 2406 4219 
Q 1781 4219 1451 3797 
Q 1122 3375 1075 2522 
Q 1259 2794 1537 2939 
Q 1816 3084 2150 3084 
Q 2853 3084 3261 2657 
Q 3669 2231 3669 1497 
Q 3669 778 3244 343 
Q 2819 -91 2113 -91 
Q 1303 -91 875 529 
Q 447 1150 447 2328 
Q 447 3434 972 4092 
Q 1497 4750 2381 4750 
Q 2619 4750 2861 4703 
Q 3103 4656 3366 4563 
z
" transform="scale(0.015625)"/>
       </defs>
       <use xlink:href="#DejaVuSans-30"/>
       <use xlink:href="#DejaVuSans-2e" x="63.623047"/>
       <use xlink:href="#DejaVuSans-36" x="95.410156"/>
      </g>
     </g>
    </g>
    <g id="xtick_5">
     <g id="line2d_5">
      <g>
       <use xlink:href="#md5abdc057a" x="269.036829" y="318.04" style="stroke: #000000; stroke-width: 0.8"/>
      </g>
     </g>
     <g id="text_5">
      <!-- 0.7 -->
      <g transform="translate(261.085266 332.638438) scale(0.1 -0.1)">
       <defs>
        <path id="DejaVuSans-37" d="M 525 4666 
L 3525 4666 
L 3525 4397 
L 1831 0 
L 1172 0 
L 2766 4134 
L 525 4134 
L 525 4666 
z
" transform="scale(0.015625)"/>
       </defs>
       <use xlink:href="#DejaVuSans-30"/>
       <use xlink:href="#DejaVuSans-2e" x="63.623047"/>
       <use xlink:href="#DejaVuSans-37" x="95.410156"/>
      </g>
     </g>
    </g>
    <g id="xtick_6">
     <g id="line2d_6">
      <g>
       <use xlink:href="#md5abdc057a" x="305.166667" y="318.04" style="stroke: #000000; stroke-width: 0.8"/>
      </g>
     </g>
     <g id="text_6">
      <!-- 0.8 -->
      <g transform="translate(297.215105 332.638438) scale(0.1 -0.1)">
       <defs>
        <path id="DejaVuSans-38" d="M 2034 2216 
Q 1584 2216 1326 1975 
Q 1069 1734 1069 1313 
Q 1069 891 1326 650 
Q 1584 409 2034 409 
Q 2484 409 2743 651 
Q 3003 894 3003 1313 
Q 3003 1734 2745 1975 
Q 2488 2216 2034 2216 
z
M 1403 2484 
Q 997 2584 770 2862 
Q 544 3141 544 3541 
Q 544 4100 942 4425 
Q 1341 4750 2034 4750 
Q 2731 4750 3128 4425 
Q 3525 4100 3525 3541 
Q 3525 3141 3298 2862 
Q 3072 2584 2669 2484 
Q 3125 2378 3379 2068 
Q 3634 1759 3634 1313 
Q 3634 634 3220 271 
Q 2806 -91 2034 -91 
Q 1263 -91 848 271 
Q 434 634 434 1313 
Q 434 1759 690 2068 
Q 947 2378 1403 2484 
z
M 1172 3481 
Q 1172 3119 1398 2916 
Q 1625 2713 2034 2713 
Q 2441 2713 2670 2916 
Q 2900 3119 2900 3481 
Q 2900 3844 2670 4047 
Q 2441 4250 2034 4250 
Q 1625 4250 1398 4047 
Q 1172 3844 1172 3481 
z
" transform="scale(0.015625)"/>
       </defs>
       <use xlink:href="#DejaVuSans-30"/>
       <use xlink:href="#DejaVuSans-2e" x="63.623047"/>
       <use xlink:href="#DejaVuSans-38" x="95.410156"/>
      </g>
     </g>
    </g>
    <g id="xtick_7">
     <g id="line2d_7">
      <g>
       <use xlink:href="#md5abdc057a" x="341.296506" y="318.04" style="stroke: #000000; stroke-width: 0.8"/>
      </g>
     </g>
     <g id="text_7">
      <!-- 0.9 -->
      <g transform="translate(333.344944 332.638438) scale(0.1 -0.1)">
       <defs>
        <path id="DejaVuSans-39" d="M 703 97 
L 703 672 
Q 941 559 1184 500 
Q 1428 441 1663 441 
Q 2288 441 2617 861 
Q 2947 1281 2994 2138 
Q 2813 1869 2534 1725 
Q 2256 1581 1919 1581 
Q 1219 1581 811 2004 
Q 403 2428 403 3163 
Q 403 3881 828 4315 
Q 1253 4750 1959 4750 
Q 2769 4750 3195 4129 
Q 3622 3509 3622 2328 
Q 3622 1225 3098 567 
Q 2575 -91 1691 -91 
Q 1453 -91 1209 -44 
Q 966 3 703 97 
z
M 1959 2075 
Q 2384 2075 2632 2365 
Q 2881 2656 2881 3163 
Q 2881 3666 2632 3958 
Q 2384 4250 1959 4250 
Q 1534 4250 1286 3958 
Q 1038 3666 1038 3163 
Q 1038 2656 1286 2365 
Q 1534 2075 1959 2075 
z
" transform="scale(0.015625)"/>
       </defs>
       <use xlink:href="#DejaVuSans-30"/>
       <use xlink:href="#DejaVuSans-2e" x="63.623047"/>
       <use xlink:href="#DejaVuSans-39" x="95.410156"/>
      </g>
     </g>
    </g>
    <g id="text_8">
     <!-- top -->
     <g transform="translate(212.184344 346.316563) scale(0.1 -0.1)">
      <defs>
       <path id="DejaVuSans-74" d="M 1172 4494 
L 1172 3500 
L 2356 3500 
L 2356 3053 
L 1172 3053 
L 1172 1153 
Q 1172 725 1289 603 
Q 1406 481 1766 481 
L 2356 481 
L 2356 0 
L 1766 0 
Q 1100 0 847 248 
Q 594 497 594 1153 
L 594 3053 
L 172 3053 
L 172 3500 
L 594 3500 
L 594 4494 
L 1172 4494 
z
" transform="scale(0.015625)"/>
       <path id="DejaVuSans-6f" d="M 1959 3097 
Q 1497 3097 1228 2736 
Q 959 2375 959 1747 
Q 959 1119 1226 758 
Q 1494 397 1959 397 
Q 2419 397 2687 759 
Q 2956 1122 2956 1747 
Q 2956 2369 2687 2733 
Q 2419 3097 1959 3097 
z
M 1959 3584 
Q 2709 3584 3137 3096 
Q 3566 2609 3566 1747 
Q 3566 888 3137 398 
Q 2709 -91 1959 -91 
Q 1206 -91 779 398 
Q 353 888 353 1747 
Q 353 2609 779 3096 
Q 1206 3584 1959 3584 
z
" transform="scale(0.015625)"/>
       <path id="DejaVuSans-70" d="M 1159 525 
L 1159 -1331 
L 581 -1331 
L 581 3500 
L 1159 3500 
L 1159 2969 
Q 1341 3281 1617 3432 
Q 1894 3584 2278 3584 
Q 2916 3584 3314 3078 
Q 3713 2572 3713 1747 
Q 3713 922 3314 415 
Q 2916 -91 2278 -91 
Q 1894 -91 1617 61 
Q 1341 213 1159 525 
z
M 3116 1747 
Q 3116 2381 2855 2742 
Q 2594 3103 2138 3103 
Q 1681 3103 1420 2742 
Q 1159 2381 1159 1747 
Q 1159 1113 1420 752 
Q 1681 391 2138 391 
Q 2594 391 2855 752 
Q 3116 1113 3116 1747 
z
" transform="scale(0.015625)"/>
      </defs>
      <use xlink:href="#DejaVuSans-74"/>
      <use xlink:href="#DejaVuSans-6f" x="39.208984"/>
      <use xlink:href="#DejaVuSans-70" x="100.390625"/>
     </g>
    </g>
   </g>
   <g id="matplotlib.axis_2">
    <g id="ytick_1">
     <g id="line2d_8">
      <defs>
       <path id="mf430f05038" d="M 0 0 
L -3.5 0 
" style="stroke: #000000; stroke-width: 0.8"/>
      </defs>
      <g>
       <use xlink:href="#mf430f05038" x="95.06" y="62.006667" style="stroke: #000000; stroke-width: 0.8"/>
      </g>
     </g>
     <g id="text_9">
      <!-- Final -->
      <g transform="translate(65.011563 65.805885) scale(0.1 -0.1)">
       <defs>
        <path id="DejaVuSans-46" d="M 628 4666 
L 3309 4666 
L 3309 4134 
L 1259 4134 
L 1259 2759 
L 3109 2759 
L 3109 2228 
L 1259 2228 
L 1259 0 
L 628 0 
L 628 4666 
z
" transform="scale(0.015625)"/>
        <path id="DejaVuSans-69" d="M 603 3500 
L 1178 3500 
L 1178 0 
L 603 0 
L 603 3500 
z
M 603 4863 
L 1178 4863 
L 1178 4134 
L 603 4134 
L 603 4863 
z
" transform="scale(0.015625)"/>
        <path id="DejaVuSans-6e" d="M 3513 2113 
L 3513 0 
L 2938 0 
L 2938 2094 
Q 2938 2591 2744 2837 
Q 2550 3084 2163 3084 
Q 1697 3084 1428 2787 
Q 1159 2491 1159 1978 
L 1159 0 
L 581 0 
L 581 3500 
L 1159 3500 
L 1159 2956 
Q 1366 3272 1645 3428 
Q 1925 3584 2291 3584 
Q 2894 3584 3203 3211 
Q 3513 2838 3513 2113 
z
" transform="scale(0.015625)"/>
        <path id="DejaVuSans-61" d="M 2194 1759 
Q 1497 1759 1228 1600 
Q 959 1441 959 1056 
Q 959 750 1161 570 
Q 1363 391 1709 391 
Q 2188 391 2477 730 
Q 2766 1069 2766 1631 
L 2766 1759 
L 2194 1759 
z
M 3341 1997 
L 3341 0 
L 2766 0 
L 2766 531 
Q 2569 213 2275 61 
Q 1981 -91 1556 -91 
Q 1019 -91 701 211 
Q 384 513 384 1019 
Q 384 1609 779 1909 
Q 1175 2209 1959 2209 
L 2766 2209 
L 2766 2266 
Q 2766 2663 2505 2880 
Q 2244 3097 1772 3097 
Q 1472 3097 1187 3025 
Q 903 2953 641 2809 
L 641 3341 
Q 956 3463 1253 3523 
Q 1550 3584 1831 3584 
Q 2591 3584 2966 3190 
Q 3341 2797 3341 1997 
z
" transform="scale(0.015625)"/>
        <path id="DejaVuSans-6c" d="M 603 4863 
L 1178 4863 
L 1178 0 
L 603 0 
L 603 4863 
z
" transform="scale(0.015625)"/>
       </defs>
       <use xlink:href="#DejaVuSans-46"/>
       <use xlink:href="#DejaVuSans-69" x="50.269531"/>
       <use xlink:href="#DejaVuSans-6e" x="78.052734"/>
       <use xlink:href="#DejaVuSans-61" x="141.431641"/>
       <use xlink:href="#DejaVuSans-6c" x="202.710938"/>
      </g>
     </g>
    </g>
    <g id="ytick_2">
     <g id="line2d_9">
      <g>
       <use xlink:href="#mf430f05038" x="95.06" y="164.42" style="stroke: #000000; stroke-width: 0.8"/>
      </g>
     </g>
     <g id="text_10">
      <!-- SemiFinal -->
      <g transform="translate(39.99125 168.219219) scale(0.1 -0.1)">
       <defs>
        <path id="DejaVuSans-53" d="M 3425 4513 
L 3425 3897 
Q 3066 4069 2747 4153 
Q 2428 4238 2131 4238 
Q 1616 4238 1336 4038 
Q 1056 3838 1056 3469 
Q 1056 3159 1242 3001 
Q 1428 2844 1947 2747 
L 2328 2669 
Q 3034 2534 3370 2195 
Q 3706 1856 3706 1288 
Q 3706 609 3251 259 
Q 2797 -91 1919 -91 
Q 1588 -91 1214 -16 
Q 841 59 441 206 
L 441 856 
Q 825 641 1194 531 
Q 1563 422 1919 422 
Q 2459 422 2753 634 
Q 3047 847 3047 1241 
Q 3047 1584 2836 1778 
Q 2625 1972 2144 2069 
L 1759 2144 
Q 1053 2284 737 2584 
Q 422 2884 422 3419 
Q 422 4038 858 4394 
Q 1294 4750 2059 4750 
Q 2388 4750 2728 4690 
Q 3069 4631 3425 4513 
z
" transform="scale(0.015625)"/>
        <path id="DejaVuSans-65" d="M 3597 1894 
L 3597 1613 
L 953 1613 
Q 991 1019 1311 708 
Q 1631 397 2203 397 
Q 2534 397 2845 478 
Q 3156 559 3463 722 
L 3463 178 
Q 3153 47 2828 -22 
Q 2503 -91 2169 -91 
Q 1331 -91 842 396 
Q 353 884 353 1716 
Q 353 2575 817 3079 
Q 1281 3584 2069 3584 
Q 2775 3584 3186 3129 
Q 3597 2675 3597 1894 
z
M 3022 2063 
Q 3016 2534 2758 2815 
Q 2500 3097 2075 3097 
Q 1594 3097 1305 2825 
Q 1016 2553 972 2059 
L 3022 2063 
z
" transform="scale(0.015625)"/>
        <path id="DejaVuSans-6d" d="M 3328 2828 
Q 3544 3216 3844 3400 
Q 4144 3584 4550 3584 
Q 5097 3584 5394 3201 
Q 5691 2819 5691 2113 
L 5691 0 
L 5113 0 
L 5113 2094 
Q 5113 2597 4934 2840 
Q 4756 3084 4391 3084 
Q 3944 3084 3684 2787 
Q 3425 2491 3425 1978 
L 3425 0 
L 2847 0 
L 2847 2094 
Q 2847 2600 2669 2842 
Q 2491 3084 2119 3084 
Q 1678 3084 1418 2786 
Q 1159 2488 1159 1978 
L 1159 0 
L 581 0 
L 581 3500 
L 1159 3500 
L 1159 2956 
Q 1356 3278 1631 3431 
Q 1906 3584 2284 3584 
Q 2666 3584 2933 3390 
Q 3200 3197 3328 2828 
z
" transform="scale(0.015625)"/>
       </defs>
       <use xlink:href="#DejaVuSans-53"/>
       <use xlink:href="#DejaVuSans-65" x="63.476562"/>
       <use xlink:href="#DejaVuSans-6d" x="125"/>
       <use xlink:href="#DejaVuSans-69" x="222.412109"/>
       <use xlink:href="#DejaVuSans-46" x="250.195312"/>
       <use xlink:href="#DejaVuSans-69" x="300.464844"/>
       <use xlink:href="#DejaVuSans-6e" x="328.248047"/>
       <use xlink:href="#DejaVuSans-61" x="391.626953"/>
       <use xlink:href="#DejaVuSans-6c" x="452.90625"/>
      </g>
     </g>
    </g>
    <g id="ytick_3">
     <g id="line2d_10">
      <g>
       <use xlink:href="#mf430f05038" x="95.06" y="266.833333" style="stroke: #000000; stroke-width: 0.8"/>
      </g>
     </g>
     <g id="text_11">
      <!-- Qualification -->
      <g transform="translate(25.086563 270.632552) scale(0.1 -0.1)">
       <defs>
        <path id="DejaVuSans-51" d="M 2522 4238 
Q 1834 4238 1429 3725 
Q 1025 3213 1025 2328 
Q 1025 1447 1429 934 
Q 1834 422 2522 422 
Q 3209 422 3611 934 
Q 4013 1447 4013 2328 
Q 4013 3213 3611 3725 
Q 3209 4238 2522 4238 
z
M 3406 84 
L 4238 -825 
L 3475 -825 
L 2784 -78 
Q 2681 -84 2626 -87 
Q 2572 -91 2522 -91 
Q 1538 -91 948 567 
Q 359 1225 359 2328 
Q 359 3434 948 4092 
Q 1538 4750 2522 4750 
Q 3503 4750 4090 4092 
Q 4678 3434 4678 2328 
Q 4678 1516 4351 937 
Q 4025 359 3406 84 
z
" transform="scale(0.015625)"/>
        <path id="DejaVuSans-75" d="M 544 1381 
L 544 3500 
L 1119 3500 
L 1119 1403 
Q 1119 906 1312 657 
Q 1506 409 1894 409 
Q 2359 409 2629 706 
Q 2900 1003 2900 1516 
L 2900 3500 
L 3475 3500 
L 3475 0 
L 2900 0 
L 2900 538 
Q 2691 219 2414 64 
Q 2138 -91 1772 -91 
Q 1169 -91 856 284 
Q 544 659 544 1381 
z
M 1991 3584 
L 1991 3584 
z
" transform="scale(0.015625)"/>
        <path id="DejaVuSans-66" d="M 2375 4863 
L 2375 4384 
L 1825 4384 
Q 1516 4384 1395 4259 
Q 1275 4134 1275 3809 
L 1275 3500 
L 2222 3500 
L 2222 3053 
L 1275 3053 
L 1275 0 
L 697 0 
L 697 3053 
L 147 3053 
L 147 3500 
L 697 3500 
L 697 3744 
Q 697 4328 969 4595 
Q 1241 4863 1831 4863 
L 2375 4863 
z
" transform="scale(0.015625)"/>
        <path id="DejaVuSans-63" d="M 3122 3366 
L 3122 2828 
Q 2878 2963 2633 3030 
Q 2388 3097 2138 3097 
Q 1578 3097 1268 2742 
Q 959 2388 959 1747 
Q 959 1106 1268 751 
Q 1578 397 2138 397 
Q 2388 397 2633 464 
Q 2878 531 3122 666 
L 3122 134 
Q 2881 22 2623 -34 
Q 2366 -91 2075 -91 
Q 1284 -91 818 406 
Q 353 903 353 1747 
Q 353 2603 823 3093 
Q 1294 3584 2113 3584 
Q 2378 3584 2631 3529 
Q 2884 3475 3122 3366 
z
" transform="scale(0.015625)"/>
       </defs>
       <use xlink:href="#DejaVuSans-51"/>
       <use xlink:href="#DejaVuSans-75" x="78.710938"/>
       <use xlink:href="#DejaVuSans-61" x="142.089844"/>
       <use xlink:href="#DejaVuSans-6c" x="203.369141"/>
       <use xlink:href="#DejaVuSans-69" x="231.152344"/>
       <use xlink:href="#DejaVuSans-66" x="258.935547"/>
       <use xlink:href="#DejaVuSans-69" x="294.140625"/>
       <use xlink:href="#DejaVuSans-63" x="321.923828"/>
       <use xlink:href="#DejaVuSans-61" x="376.904297"/>
       <use xlink:href="#DejaVuSans-74" x="438.183594"/>
       <use xlink:href="#DejaVuSans-69" x="477.392578"/>
       <use xlink:href="#DejaVuSans-6f" x="505.175781"/>
       <use xlink:href="#DejaVuSans-6e" x="566.357422"/>
      </g>
     </g>
    </g>
    <g id="text_12">
     <!-- round -->
     <g transform="translate(19.006875 178.934063) rotate(-90) scale(0.1 -0.1)">
      <defs>
       <path id="DejaVuSans-72" d="M 2631 2963 
Q 2534 3019 2420 3045 
Q 2306 3072 2169 3072 
Q 1681 3072 1420 2755 
Q 1159 2438 1159 1844 
L 1159 0 
L 581 0 
L 581 3500 
L 1159 3500 
L 1159 2956 
Q 1341 3275 1631 3429 
Q 1922 3584 2338 3584 
Q 2397 3584 2469 3576 
Q 2541 3569 2628 3553 
L 2631 2963 
z
" transform="scale(0.015625)"/>
       <path id="DejaVuSans-64" d="M 2906 2969 
L 2906 4863 
L 3481 4863 
L 3481 0 
L 2906 0 
L 2906 525 
Q 2725 213 2448 61 
Q 2172 -91 1784 -91 
Q 1150 -91 751 415 
Q 353 922 353 1747 
Q 353 2572 751 3078 
Q 1150 3584 1784 3584 
Q 2172 3584 2448 3432 
Q 2725 3281 2906 2969 
z
M 947 1747 
Q 947 1113 1208 752 
Q 1469 391 1925 391 
Q 2381 391 2643 752 
Q 2906 1113 2906 1747 
Q 2906 2381 2643 2742 
Q 2381 3103 1925 3103 
Q 1469 3103 1208 2742 
Q 947 2381 947 1747 
z
" transform="scale(0.015625)"/>
      </defs>
      <use xlink:href="#DejaVuSans-72"/>
      <use xlink:href="#DejaVuSans-6f" x="38.863281"/>
      <use xlink:href="#DejaVuSans-75" x="100.044922"/>
      <use xlink:href="#DejaVuSans-6e" x="163.423828"/>
      <use xlink:href="#DejaVuSans-64" x="226.802734"/>
     </g>
    </g>
   </g>
   <g id="patch_3">
    <path d="M 95.06 318.04 
L 95.06 10.8 
" style="fill: none; stroke: #000000; stroke-width: 0.8; stroke-linejoin: miter; stroke-linecap: square"/>
   </g>
   <g id="patch_4">
    <path d="M 345.696188 318.04 
L 345.696188 10.8 
" style="fill: none; stroke: #000000; stroke-width: 0.8; stroke-linejoin: miter; stroke-linecap: square"/>
   </g>
   <g id="patch_5">
    <path d="M 95.06 318.04 
L 345.696188 318.04 
" style="fill: none; stroke: #000000; stroke-width: 0.8; stroke-linejoin: miter; stroke-linecap: square"/>
   </g>
   <g id="patch_6">
    <path d="M 95.06 10.8 
L 345.696188 10.8 
" style="fill: none; stroke: #000000; stroke-width: 0.8; stroke-linejoin: miter; stroke-linecap: square"/>
   </g>
   <g id="PathCollection_1">
    <defs>
     <path id="mb7eaf0b88d" d="M 0 2.5 
C 0.663008 2.5 1.29895 2.236584 1.767767 1.767767 
C 2.236584 1.29895 2.5 0.663008 2.5 0 
C 2.5 -0.663008 2.236584 -1.29895 1.767767 -1.767767 
C 1.29895 -2.236584 0.663008 -2.5 0 -2.5 
C -0.663008 -2.5 -1.29895 -2.236584 -1.767767 -1.767767 
C -2.236584 -1.29895 -2.5 -0.663008 -2.5 0 
C -2.5 0.663008 -2.236584 1.29895 -1.767767 1.767767 
C -1.29895 2.236584 -0.663008 2.5 0 2.5 
z
"/>
    </defs>
    <g clip-path="url(#pf57b0cc506)">
     <use xlink:href="#mb7eaf0b88d" x="196.777151" y="63.786792" style="fill: #1f77b4"/>
     <use xlink:href="#mb7eaf0b88d" x="216.132422" y="57.332743" style="fill: #1f77b4"/>
     <use xlink:href="#mb7eaf0b88d" x="224.376333" y="70.80246" style="fill: #1f77b4"/>
     <use xlink:href="#mb7eaf0b88d" x="196.777151" y="52.713135" style="fill: #1f77b4"/>
     <use xlink:href="#mb7eaf0b88d" x="148.463994" y="66.662928" style="fill: #1f77b4"/>
     <use xlink:href="#mb7eaf0b88d" x="155.916024" y="61.679166" style="fill: #1f77b4"/>
     <use xlink:href="#mb7eaf0b88d" x="184.931302" y="59.815625" style="fill: #1f77b4"/>
     <use xlink:href="#mb7eaf0b88d" x="187.744691" y="52.894482" style="fill: #1f77b4"/>
     <use xlink:href="#mb7eaf0b88d" x="217.782871" y="56.246616" style="fill: #1f77b4"/>
     <use xlink:href="#mb7eaf0b88d" x="229.035936" y="62.092415" style="fill: #1f77b4"/>
     <use xlink:href="#mb7eaf0b88d" x="191.131864" y="61.31949" style="fill: #1f77b4"/>
     <use xlink:href="#mb7eaf0b88d" x="242.861129" y="56.591274" style="fill: #1f77b4"/>
     <use xlink:href="#mb7eaf0b88d" x="196.777151" y="72.034165" style="fill: #1f77b4"/>
     <use xlink:href="#mb7eaf0b88d" x="213.503928" y="57.538555" style="fill: #1f77b4"/>
     <use xlink:href="#mb7eaf0b88d" x="169.406061" y="62.343752" style="fill: #1f77b4"/>
     <use xlink:href="#mb7eaf0b88d" x="205.809611" y="71.895739" style="fill: #1f77b4"/>
     <use xlink:href="#mb7eaf0b88d" x="164.78719" y="57.688842" style="fill: #1f77b4"/>
     <use xlink:href="#mb7eaf0b88d" x="170.970123" y="66.016749" style="fill: #1f77b4"/>
     <use xlink:href="#mb7eaf0b88d" x="190.325394" y="59.702032" style="fill: #1f77b4"/>
     <use xlink:href="#mb7eaf0b88d" x="186.024223" y="69.131815" style="fill: #1f77b4"/>
     <use xlink:href="#mb7eaf0b88d" x="182.030278" y="57.521046" style="fill: #1f77b4"/>
     <use xlink:href="#mb7eaf0b88d" x="193.013626" y="67.798912" style="fill: #1f77b4"/>
     <use xlink:href="#mb7eaf0b88d" x="188.174808" y="66.579231" style="fill: #1f77b4"/>
     <use xlink:href="#mb7eaf0b88d" x="222.584179" y="65.993804" style="fill: #1f77b4"/>
     <use xlink:href="#mb7eaf0b88d" x="106.452554" y="66.241956" style="fill: #1f77b4"/>
     <use xlink:href="#mb7eaf0b88d" x="226.88535" y="53.645297" style="fill: #1f77b4"/>
     <use xlink:href="#mb7eaf0b88d" x="221.867317" y="56.594968" style="fill: #1f77b4"/>
     <use xlink:href="#mb7eaf0b88d" x="211.83125" y="70.101394" style="fill: #1f77b4"/>
    </g>
   </g>
   <g id="PathCollection_2">
    <g clip-path="url(#pf57b0cc506)">
     <use xlink:href="#mb7eaf0b88d" x="272.047648" y="167.987716" style="fill: #1f77b4"/>
     <use xlink:href="#mb7eaf0b88d" x="300.005262" y="170.830661" style="fill: #1f77b4"/>
     <use xlink:href="#mb7eaf0b88d" x="279.574698" y="174.474534" style="fill: #1f77b4"/>
     <use xlink:href="#mb7eaf0b88d" x="272.454516" y="156.901294" style="fill: #1f77b4"/>
     <use xlink:href="#mb7eaf0b88d" x="209.949488" y="157.896329" style="fill: #1f77b4"/>
     <use xlink:href="#mb7eaf0b88d" x="327.51012" y="159.758751" style="fill: #1f77b4"/>
     <use xlink:href="#mb7eaf0b88d" x="221.790116" y="159.307682" style="fill: #1f77b4"/>
     <use xlink:href="#mb7eaf0b88d" x="268.16272" y="160.807215" style="fill: #1f77b4"/>
     <use xlink:href="#mb7eaf0b88d" x="263.015189" y="155.951046" style="fill: #1f77b4"/>
     <use xlink:href="#mb7eaf0b88d" x="246.045113" y="163.674617" style="fill: #1f77b4"/>
     <use xlink:href="#mb7eaf0b88d" x="287.101748" y="173.327931" style="fill: #1f77b4"/>
     <use xlink:href="#mb7eaf0b88d" x="271.763609" y="173.896665" style="fill: #1f77b4"/>
     <use xlink:href="#mb7eaf0b88d" x="257.919955" y="172.596242" style="fill: #1f77b4"/>
     <use xlink:href="#mb7eaf0b88d" x="244.160546" y="167.726273" style="fill: #1f77b4"/>
     <use xlink:href="#mb7eaf0b88d" x="252.565873" y="164.370275" style="fill: #1f77b4"/>
     <use xlink:href="#mb7eaf0b88d" x="301.214966" y="158.98745" style="fill: #1f77b4"/>
     <use xlink:href="#mb7eaf0b88d" x="244.596055" y="171.10555" style="fill: #1f77b4"/>
     <use xlink:href="#mb7eaf0b88d" x="234.549255" y="155.392426" style="fill: #1f77b4"/>
     <use xlink:href="#mb7eaf0b88d" x="226.88535" y="154.772841" style="fill: #1f77b4"/>
     <use xlink:href="#mb7eaf0b88d" x="250.234566" y="171.352477" style="fill: #1f77b4"/>
     <use xlink:href="#mb7eaf0b88d" x="235.096677" y="154.491556" style="fill: #1f77b4"/>
     <use xlink:href="#mb7eaf0b88d" x="217.022319" y="166.148573" style="fill: #1f77b4"/>
     <use xlink:href="#mb7eaf0b88d" x="206.454786" y="160.924304" style="fill: #1f77b4"/>
     <use xlink:href="#mb7eaf0b88d" x="175.933013" y="171.430197" style="fill: #1f77b4"/>
     <use xlink:href="#mb7eaf0b88d" x="256.993549" y="166.138014" style="fill: #1f77b4"/>
     <use xlink:href="#mb7eaf0b88d" x="226.88535" y="172.635007" style="fill: #1f77b4"/>
     <use xlink:href="#mb7eaf0b88d" x="242.824985" y="162.959277" style="fill: #1f77b4"/>
     <use xlink:href="#mb7eaf0b88d" x="267.883749" y="164.523009" style="fill: #1f77b4"/>
    </g>
   </g>
   <g id="PathCollection_3">
    <g clip-path="url(#pf57b0cc506)">
     <use xlink:href="#mb7eaf0b88d" x="270.757297" y="275.023747" style="fill: #1f77b4"/>
     <use xlink:href="#mb7eaf0b88d" x="275.918703" y="257.648337" style="fill: #1f77b4"/>
     <use xlink:href="#mb7eaf0b88d" x="293.123388" y="259.250346" style="fill: #1f77b4"/>
     <use xlink:href="#mb7eaf0b88d" x="320.790381" y="263.328771" style="fill: #1f77b4"/>
     <use xlink:href="#mb7eaf0b88d" x="300.831087" y="265.393088" style="fill: #1f77b4"/>
     <use xlink:href="#mb7eaf0b88d" x="323.231587" y="268.390435" style="fill: #1f77b4"/>
     <use xlink:href="#mb7eaf0b88d" x="321.589321" y="269.549788" style="fill: #1f77b4"/>
     <use xlink:href="#mb7eaf0b88d" x="291.402919" y="272.450293" style="fill: #1f77b4"/>
     <use xlink:href="#mb7eaf0b88d" x="309.879255" y="275.174392" style="fill: #1f77b4"/>
     <use xlink:href="#mb7eaf0b88d" x="321.224373" y="265.964907" style="fill: #1f77b4"/>
     <use xlink:href="#mb7eaf0b88d" x="310.725104" y="266.450253" style="fill: #1f77b4"/>
     <use xlink:href="#mb7eaf0b88d" x="305.166667" y="260.997123" style="fill: #1f77b4"/>
     <use xlink:href="#mb7eaf0b88d" x="282.518112" y="275.949284" style="fill: #1f77b4"/>
     <use xlink:href="#mb7eaf0b88d" x="334.303634" y="259.061018" style="fill: #1f77b4"/>
     <use xlink:href="#mb7eaf0b88d" x="303.159454" y="257.137032" style="fill: #1f77b4"/>
     <use xlink:href="#mb7eaf0b88d" x="302.97698" y="276.568222" style="fill: #1f77b4"/>
     <use xlink:href="#mb7eaf0b88d" x="315.084662" y="266.380097" style="fill: #1f77b4"/>
     <use xlink:href="#mb7eaf0b88d" x="299.911418" y="256.711766" style="fill: #1f77b4"/>
     <use xlink:href="#mb7eaf0b88d" x="328.790023" y="268.852544" style="fill: #1f77b4"/>
     <use xlink:href="#mb7eaf0b88d" x="302.387449" y="277.040518" style="fill: #1f77b4"/>
     <use xlink:href="#mb7eaf0b88d" x="277.450627" y="263.416583" style="fill: #1f77b4"/>
     <use xlink:href="#mb7eaf0b88d" x="302.83571" y="269.133522" style="fill: #1f77b4"/>
     <use xlink:href="#mb7eaf0b88d" x="320.822931" y="274.542405" style="fill: #1f77b4"/>
     <use xlink:href="#mb7eaf0b88d" x="296.986326" y="258.119838" style="fill: #1f77b4"/>
     <use xlink:href="#mb7eaf0b88d" x="148.604033" y="262.752614" style="fill: #1f77b4"/>
     <use xlink:href="#mb7eaf0b88d" x="232.90699" y="259.09605" style="fill: #1f77b4"/>
     <use xlink:href="#mb7eaf0b88d" x="282.347822" y="265.176058" style="fill: #1f77b4"/>
     <use xlink:href="#mb7eaf0b88d" x="312.392635" y="261.784962" style="fill: #1f77b4"/>
    </g>
   </g>
  </g>
 </g>
 <defs>
  <clipPath id="pf57b0cc506">
   <rect x="95.06" y="10.8" width="250.636188" height="307.24"/>
  </clipPath>
 </defs>
</svg>
